G04 DipTrace 3.3.1.1*
G04 bottommask.gbr*
%MOIN*%
G04 #@! TF.FileFunction,Soldermask,Bot*
G04 #@! TF.Part,Single*
%AMOUTLINE1*
4,1,8,
-0.031158,0.023622,
-0.043307,0.011473,
-0.043307,-0.011473,
-0.031158,-0.023622,
0.031158,-0.023622,
0.043307,-0.011473,
0.043307,0.011473,
0.031158,0.023622,
-0.031158,0.023622,
0*%
%ADD20R,0.070866X0.070866*%
%ADD24R,0.066929X0.066929*%
%ADD25C,0.066929*%
%ADD27R,0.074803X0.074803*%
%ADD28C,0.074803*%
%ADD40C,0.070866*%
%ADD43O,0.086614X0.047244*%
%ADD45C,0.082677*%
%ADD46R,0.082677X0.082677*%
%ADD47C,0.086614*%
%ADD50C,0.07874*%
%ADD52R,0.07874X0.07874*%
%ADD53C,0.072835*%
%ADD58OUTLINE1*%
%FSLAX26Y26*%
G04*
G70*
G90*
G75*
G01*
G04 BotMask*
%LPD*%
D53*
X1354961Y1098425D3*
X1154961D3*
X514961Y984252D3*
Y1184252D3*
X2614961Y838583D3*
X2814961D3*
X1534961Y956693D3*
Y1156693D3*
D52*
X2054961Y1641732D3*
D50*
X2490000D3*
D24*
X2464961Y1023622D3*
D25*
Y653543D3*
D24*
X2344961D3*
D25*
Y1023622D3*
D27*
X514961Y1724409D3*
D28*
Y1624409D3*
Y1524409D3*
Y1424409D3*
Y1324409D3*
D27*
X1284961Y519685D3*
D28*
Y619685D3*
Y719685D3*
Y819685D3*
Y919685D3*
D27*
X1354961Y1637795D3*
D28*
X1254961D3*
X1354961Y1737795D3*
X1254961D3*
X1354961Y1837795D3*
X1254961D3*
D47*
X2494961Y1909449D3*
X1764961Y1913386D3*
X2964961Y866142D3*
Y732283D3*
D46*
X2804961Y1413386D3*
D45*
Y1313386D3*
Y1213386D3*
D58*
X2574961Y1361024D3*
D43*
Y1311024D3*
Y1261024D3*
D53*
X1114961Y1846457D3*
Y1438976D3*
X2964961Y1019685D3*
X2557480D3*
X2804961Y1751969D3*
X2397480D3*
X1864961Y1433071D3*
X2272441D3*
X2421220Y1115157D3*
Y1522638D3*
X1764961Y669291D3*
X2172441D3*
X2174961Y775591D3*
Y1183071D3*
X1944961Y1287402D3*
X1537480D3*
X2174961Y531496D3*
X1767480D3*
D20*
X674961Y1826772D3*
D40*
Y1726772D3*
Y1626772D3*
Y1526772D3*
Y1426772D3*
Y1326772D3*
Y1226772D3*
Y1126772D3*
Y1026772D3*
Y926772D3*
Y826772D3*
Y726772D3*
Y626772D3*
Y526772D3*
X974961D3*
Y626772D3*
Y726772D3*
Y826772D3*
Y926772D3*
Y1026772D3*
Y1126772D3*
Y1226772D3*
Y1326772D3*
Y1426772D3*
Y1526772D3*
Y1626772D3*
Y1726772D3*
Y1826772D3*
D46*
X1864961Y1645669D3*
D45*
X1764961D3*
X1664961D3*
D24*
X1714961Y1106299D3*
D25*
Y1006299D3*
Y906299D3*
Y806299D3*
X2014961D3*
Y906299D3*
Y1006299D3*
Y1106299D3*
M02*
