G04 DipTrace 3.3.1.1*
G04 Bottom.Cu.gbr*
%MOIN*%
G04 #@! TF.FileFunction,Copper,L2,Bot*
G04 #@! TF.Part,Single*
%AMOUTLINE0*
4,1,8,
-0.029528,0.019685,
-0.03937,0.009843,
-0.03937,-0.009843,
-0.029528,-0.019685,
0.029528,-0.019685,
0.03937,-0.009843,
0.03937,0.009843,
0.029528,0.019685,
-0.029528,0.019685,
0*%
%ADD13C,0.03937*%
%ADD33C,0.019134*%
%ADD34C,0.047244*%
%ADD35C,0.035433*%
%ADD36C,0.043307*%
%ADD37C,0.027559*%
G04 #@! TA.AperFunction,ComponentPad*
%ADD15C,0.07874*%
G04 #@! TA.AperFunction,Conductor*
%ADD16C,0.01*%
%ADD17C,0.015748*%
G04 #@! TA.AperFunction,CopperBalancing*
%ADD18C,0.025*%
G04 #@! TA.AperFunction,ComponentPad*
%ADD19C,0.064961*%
%ADD20R,0.070866X0.070866*%
%ADD21C,0.070866*%
%ADD22R,0.059055X0.059055*%
%ADD23C,0.059055*%
%ADD24R,0.066929X0.066929*%
%ADD25C,0.066929*%
%ADD27R,0.074803X0.074803*%
%ADD28C,0.074803*%
%ADD29O,0.07874X0.03937*%
%ADD30R,0.062992X0.062992*%
%ADD31C,0.062992*%
G04 #@! TA.AperFunction,ViaPad*
%ADD32C,0.04*%
G04 #@! TA.AperFunction,ComponentPad*
%ADD57OUTLINE0*%
%FSLAX26Y26*%
G04*
G70*
G90*
G75*
G01*
G04 Bottom*
%LPD*%
X514961Y1624409D2*
D16*
X531732D1*
X604961Y1551181D1*
Y1296772D1*
X674961Y1226772D1*
X1284961Y619685D2*
X1061969D1*
X1021024Y578740D1*
X944331D1*
X874961Y648110D1*
Y926772D1*
X974961Y1026772D1*
X1254961Y1837795D2*
Y1849764D1*
X1291024Y1885827D1*
X1524803D1*
X1764961Y1645669D1*
X1251024Y1326772D2*
D17*
X1290394Y1287402D1*
X1537480D1*
X1284961Y719685D2*
X1082047D1*
X974961Y826772D1*
X1354961Y1637795D2*
Y1558189D1*
X1204961Y1408189D1*
Y1056772D1*
X974961Y826772D1*
Y926772D2*
X985984D1*
X1094961Y1035748D1*
Y1345748D1*
X1304961Y1555748D1*
Y1687795D1*
X1354961Y1737795D1*
D32*
X1251024Y1326772D3*
X429961Y1931135D2*
D18*
X2433453D1*
X2556475D2*
X3030673D1*
X429961Y1906266D2*
X1097197D1*
X1132735D2*
X2429685D1*
X2560243D2*
X3031176D1*
X429961Y1881398D2*
X611720D1*
X738188D2*
X953014D1*
X996913D2*
X1061564D1*
X1168332D2*
X1307370D1*
X1402547D2*
X2436180D1*
X2553713D2*
X3031642D1*
X429961Y1856529D2*
X611720D1*
X738188D2*
X922692D1*
X1027235D2*
X1051552D1*
X1178379D2*
X1292622D1*
X1417297D2*
X2458500D1*
X2531428D2*
X3032108D1*
X429961Y1831660D2*
X611720D1*
X738188D2*
X914690D1*
X1035238D2*
X1052521D1*
X1177374D2*
X1290038D1*
X1419879D2*
X3032610D1*
X429961Y1806791D2*
X611720D1*
X738188D2*
X918028D1*
X1031900D2*
X1065152D1*
X1164743D2*
X1297933D1*
X1411986D2*
X2383646D1*
X2411324D2*
X2791110D1*
X2818789D2*
X3033077D1*
X429961Y1781923D2*
X611720D1*
X738188D2*
X935718D1*
X1014209D2*
X1207900D1*
X1402009D2*
X2347689D1*
X2447280D2*
X2755154D1*
X2854745D2*
X3033543D1*
X429961Y1757054D2*
X623024D1*
X726920D2*
X923016D1*
X1026912D2*
X1192793D1*
X1417152D2*
X2339220D1*
X2455748D2*
X2746722D1*
X2863214D2*
X3034046D1*
X429961Y1732185D2*
X614734D1*
X735210D2*
X914726D1*
X1035201D2*
X1189993D1*
X1419916D2*
X2342593D1*
X2452340D2*
X2750094D1*
X2859840D2*
X3034513D1*
X429961Y1707316D2*
X617820D1*
X732088D2*
X917848D1*
X1032079D2*
X1197636D1*
X1412272D2*
X2361218D1*
X2433752D2*
X2768682D1*
X2841217D2*
X3034979D1*
X429961Y1682448D2*
X635080D1*
X714864D2*
X935072D1*
X1014854D2*
X1217087D1*
X1420167D2*
X1613929D1*
X1715996D2*
X1801568D1*
X1928358D2*
X1993512D1*
X2116392D2*
X2444899D1*
X2535125D2*
X3035482D1*
X429961Y1657579D2*
X466138D1*
X563791D2*
X623346D1*
X726597D2*
X923339D1*
X1026589D2*
X1199037D1*
X1420167D2*
X1602734D1*
X1727192D2*
X1801568D1*
X1928358D2*
X1993512D1*
X2116392D2*
X2430726D1*
X2549262D2*
X3035948D1*
X429961Y1632710D2*
X456091D1*
X573839D2*
X614770D1*
X735138D2*
X914762D1*
X1035130D2*
X1195735D1*
X1420167D2*
X1602949D1*
X1726976D2*
X1801568D1*
X1928358D2*
X1993512D1*
X2116392D2*
X2429253D1*
X2550734D2*
X3036450D1*
X429961Y1607841D2*
X457957D1*
X591098D2*
X617640D1*
X732266D2*
X917633D1*
X1032259D2*
X1203988D1*
X1420167D2*
X1614719D1*
X1715206D2*
X1801568D1*
X1928358D2*
X1993512D1*
X2116392D2*
X2439265D1*
X2540722D2*
X3036917D1*
X429961Y1582972D2*
X473350D1*
X615966D2*
X634470D1*
X715474D2*
X934462D1*
X1015465D2*
X1236966D1*
X1420167D2*
X1993512D1*
X2116392D2*
X2482937D1*
X2497042D2*
X3037383D1*
X429961Y1558104D2*
X459571D1*
X729504D2*
X923661D1*
X1026266D2*
X1252324D1*
X1394581D2*
X2375392D1*
X2467052D2*
X3037886D1*
X429961Y1533235D2*
X450385D1*
X737865D2*
X914833D1*
X1035093D2*
X1227457D1*
X1384929D2*
X2363765D1*
X2478678D2*
X3038352D1*
X429961Y1508366D2*
X451820D1*
X735353D2*
X917453D1*
X1032438D2*
X1202589D1*
X1360133D2*
X2364591D1*
X2477853D2*
X3038819D1*
X429961Y1483497D2*
X464917D1*
X564975D2*
X573970D1*
X720102D2*
X933852D1*
X1016075D2*
X1078501D1*
X1151394D2*
X1177722D1*
X1335265D2*
X1838134D1*
X1891793D2*
X2245635D1*
X2299257D2*
X2378693D1*
X2463751D2*
X3039322D1*
X429961Y1458629D2*
X459894D1*
X729181D2*
X924020D1*
X1025907D2*
X1060056D1*
X1310398D2*
X1812656D1*
X1917270D2*
X2220121D1*
X2324735D2*
X2741554D1*
X2868381D2*
X3039787D1*
X429961Y1433760D2*
X450457D1*
X737793D2*
X914906D1*
X1035022D2*
X1056719D1*
X1285529D2*
X1806484D1*
X1923442D2*
X2213949D1*
X2330907D2*
X2741554D1*
X2868381D2*
X3040290D1*
X429961Y1408891D2*
X451713D1*
X735496D2*
X917310D1*
X1032618D2*
X1065260D1*
X1260661D2*
X1811974D1*
X1917953D2*
X2219440D1*
X2325417D2*
X2741554D1*
X2868381D2*
X3040756D1*
X429961Y1384022D2*
X464487D1*
X565441D2*
X573970D1*
X720605D2*
X933278D1*
X1016650D2*
X1078251D1*
X1244585D2*
X1835478D1*
X1894448D2*
X2242944D1*
X2301949D2*
X2513618D1*
X2636318D2*
X2741554D1*
X2868381D2*
X3041223D1*
X429961Y1359154D2*
X460253D1*
X728858D2*
X921077D1*
X1028850D2*
X1057832D1*
X1290625D2*
X2509598D1*
X2640337D2*
X2741554D1*
X2868381D2*
X3041726D1*
X429961Y1334285D2*
X450528D1*
X737722D2*
X912178D1*
X1037749D2*
X1055356D1*
X1138512D2*
X1165341D1*
X1302180D2*
X1494829D1*
X1580139D2*
X1902295D1*
X1987604D2*
X2516381D1*
X2633518D2*
X2745251D1*
X2864685D2*
X3042192D1*
X429961Y1309416D2*
X451568D1*
X735676D2*
X914260D1*
X1035668D2*
X1055356D1*
X1134601D2*
X1165341D1*
X1597650D2*
X1884783D1*
X2005115D2*
X2509598D1*
X2640301D2*
X2741698D1*
X2868238D2*
X3042659D1*
X429961Y1284547D2*
X464056D1*
X565871D2*
X576697D1*
X721143D2*
X928793D1*
X1021135D2*
X1055356D1*
X1134601D2*
X1165341D1*
X1601633D2*
X1880801D1*
X2009134D2*
X2518642D1*
X2631259D2*
X2748803D1*
X2861096D2*
X3043160D1*
X429961Y1259678D2*
X599232D1*
X721538D2*
X924702D1*
X1025226D2*
X1055356D1*
X1134601D2*
X1165341D1*
X1244585D2*
X1263197D1*
X1595138D2*
X1887295D1*
X2002604D2*
X2762869D1*
X2847030D2*
X3043627D1*
X429961Y1234810D2*
X488421D1*
X541507D2*
X618035D1*
X731873D2*
X915049D1*
X1034878D2*
X1055356D1*
X1134601D2*
X1165341D1*
X1244585D2*
X1502652D1*
X1572316D2*
X1910154D1*
X1979781D2*
X2138807D1*
X2211126D2*
X2745466D1*
X2864470D2*
X3044130D1*
X429961Y1209941D2*
X462728D1*
X567199D2*
X620117D1*
X729827D2*
X916950D1*
X1032941D2*
X1055356D1*
X1134601D2*
X1165341D1*
X1244585D2*
X1501253D1*
X1568692D2*
X2116882D1*
X2233051D2*
X2741661D1*
X2868273D2*
X3044596D1*
X429961Y1185072D2*
X456484D1*
X573444D2*
X636588D1*
X713320D2*
X932165D1*
X1017761D2*
X1055356D1*
X1134601D2*
X1165341D1*
X1244585D2*
X1477642D1*
X1592268D2*
X2110782D1*
X2239152D2*
X2748551D1*
X2861383D2*
X3045063D1*
X429961Y1160203D2*
X461903D1*
X568025D2*
X625068D1*
X724839D2*
X921760D1*
X1028168D2*
X1055356D1*
X1134601D2*
X1165341D1*
X1244585D2*
X1470823D1*
X1599085D2*
X1653689D1*
X1776245D2*
X2115123D1*
X2234810D2*
X2772773D1*
X2837161D2*
X3045564D1*
X429961Y1135335D2*
X485228D1*
X544701D2*
X615093D1*
X734815D2*
X912322D1*
X1037605D2*
X1055356D1*
X1244585D2*
X1474555D1*
X1595390D2*
X1653689D1*
X1776245D2*
X1968071D1*
X2061848D2*
X2133318D1*
X2216580D2*
X3046031D1*
X429961Y1110466D2*
X616815D1*
X733092D2*
X913937D1*
X1035991D2*
X1055356D1*
X1244585D2*
X1491564D1*
X1578381D2*
X1653689D1*
X1776245D2*
X1959601D1*
X2070316D2*
X3046497D1*
X429961Y1085597D2*
X631635D1*
X718308D2*
X927787D1*
X1022104D2*
X1055356D1*
X1244585D2*
X1653689D1*
X1776245D2*
X1963621D1*
X2066298D2*
X3047000D1*
X429961Y1060728D2*
X625463D1*
X724480D2*
X929188D1*
X1020740D2*
X1055356D1*
X1244585D2*
X1653689D1*
X1776245D2*
X1985331D1*
X2044588D2*
X2304556D1*
X2385344D2*
X2409446D1*
X2598066D2*
X2924385D1*
X3005530D2*
X3047467D1*
X429961Y1035860D2*
X615201D1*
X734743D2*
X918207D1*
X1031720D2*
X1040097D1*
X1238126D2*
X1661655D1*
X1768280D2*
X1964877D1*
X2065042D2*
X2290849D1*
X2399051D2*
X2409446D1*
X2613567D2*
X2908846D1*
X3021068D2*
X3047933D1*
X429961Y1010991D2*
X616672D1*
X733272D2*
X916377D1*
X1214192D2*
X1653869D1*
X1776066D2*
X1956623D1*
X2073295D2*
X2290957D1*
X2398980D2*
X2409446D1*
X2615290D2*
X2907160D1*
X3022755D2*
X3048436D1*
X429961Y986122D2*
X631097D1*
X718811D2*
X891509D1*
X1189324D2*
X1657241D1*
X1772657D2*
X1960211D1*
X2069706D2*
X2304951D1*
X2384949D2*
X2409446D1*
X2604776D2*
X2917638D1*
X3012277D2*
X3048902D1*
X429961Y961253D2*
X625823D1*
X724085D2*
X866642D1*
X1164457D2*
X1235495D1*
X1334404D2*
X1674717D1*
X1755218D2*
X1979159D1*
X2050760D2*
X3049404D1*
X429961Y936385D2*
X615273D1*
X734635D2*
X845613D1*
X1139588D2*
X1222003D1*
X1347896D2*
X1668797D1*
X1761138D2*
X3049871D1*
X429961Y911516D2*
X616529D1*
X733415D2*
X843962D1*
X905983D2*
X913650D1*
X1114720D2*
X1220280D1*
X1349655D2*
X1659681D1*
X1770217D2*
X2918929D1*
X3010984D2*
X3050337D1*
X429961Y886647D2*
X630594D1*
X719312D2*
X843962D1*
X905983D2*
X926854D1*
X1089818D2*
X1229143D1*
X1340755D2*
X1663198D1*
X1766701D2*
X2783753D1*
X2846168D2*
X2903033D1*
X3026882D2*
X3050840D1*
X429961Y861778D2*
X626217D1*
X723690D2*
X843962D1*
X905983D2*
X922836D1*
X1064949D2*
X1235961D1*
X1333937D2*
X1683652D1*
X1746282D2*
X2761505D1*
X2868417D2*
X2899731D1*
X3030182D2*
X3051306D1*
X429961Y836909D2*
X615381D1*
X734563D2*
X843962D1*
X1040081D2*
X1222146D1*
X1347752D2*
X2165362D1*
X2184572D2*
X2756517D1*
X2873404D2*
X2906801D1*
X3023113D2*
X3051773D1*
X429961Y812041D2*
X616385D1*
X733559D2*
X843962D1*
X905983D2*
X913542D1*
X1044675D2*
X1220209D1*
X1349690D2*
X2122659D1*
X2227274D2*
X2763156D1*
X2866766D2*
X2930412D1*
X2999501D2*
X3052276D1*
X429961Y787172D2*
X630093D1*
X719815D2*
X843962D1*
X905983D2*
X926388D1*
X1069542D2*
X1228820D1*
X1341077D2*
X2111823D1*
X2238075D2*
X2790285D1*
X2839638D2*
X3052741D1*
X429961Y762303D2*
X626648D1*
X723295D2*
X843962D1*
X905983D2*
X923194D1*
X1094411D2*
X1236463D1*
X1333471D2*
X2112181D1*
X2237752D2*
X3053244D1*
X429961Y737434D2*
X615451D1*
X734455D2*
X843962D1*
X1347609D2*
X2123951D1*
X2225982D2*
X3053710D1*
X429961Y712566D2*
X616241D1*
X733667D2*
X843962D1*
X1349762D2*
X1718424D1*
X1811484D2*
X2125925D1*
X2218949D2*
X3054177D1*
X429961Y687697D2*
X629626D1*
X720318D2*
X843962D1*
X905983D2*
X925958D1*
X1023970D2*
X1060703D1*
X1341402D2*
X1703531D1*
X1826375D2*
X2111033D1*
X2233877D2*
X3054680D1*
X429961Y662828D2*
X627042D1*
X722865D2*
X843962D1*
X905983D2*
X923589D1*
X1026337D2*
X1245255D1*
X1324678D2*
X1701056D1*
X1828852D2*
X2108556D1*
X2236316D2*
X3055146D1*
X429961Y637959D2*
X615559D1*
X734348D2*
X845828D1*
X1341402D2*
X1709273D1*
X1820634D2*
X2116739D1*
X2228135D2*
X3055613D1*
X429961Y613091D2*
X616097D1*
X733810D2*
X867180D1*
X1344056D2*
X1736941D1*
X1793004D2*
X2144406D1*
X2200469D2*
X3056114D1*
X429961Y588222D2*
X629123D1*
X720783D2*
X892047D1*
X1073310D2*
X1234957D1*
X1334942D2*
X1740636D1*
X1794331D2*
X3056581D1*
X429961Y563353D2*
X627472D1*
X722471D2*
X916915D1*
X1048442D2*
X1273962D1*
X1295936D2*
X1712109D1*
X1822860D2*
X3057047D1*
X429961Y538484D2*
X615667D1*
X734240D2*
X918709D1*
X1031182D2*
X1703640D1*
X1831328D2*
X3057550D1*
X429961Y513615D2*
X615990D1*
X733954D2*
X919068D1*
X1030860D2*
X1705900D1*
X1829067D2*
X3058017D1*
X429961Y488747D2*
X628693D1*
X721251D2*
X932740D1*
X1017188D2*
X1720433D1*
X1814499D2*
X3058518D1*
X429961Y463878D2*
X3058986D1*
X429961Y439009D2*
X3059451D1*
X623403Y1887516D2*
X735705D1*
Y1766028D1*
X717655D1*
X721874Y1760856D1*
X726629Y1753097D1*
X730110Y1744692D1*
X732235Y1735843D1*
X732949Y1726772D1*
X732235Y1717701D1*
X730110Y1708852D1*
X726629Y1700446D1*
X721874Y1692688D1*
X715965Y1685768D1*
X709045Y1679858D1*
X704312Y1676798D1*
X709045Y1673685D1*
X715965Y1667776D1*
X721874Y1660856D1*
X726629Y1653097D1*
X730110Y1644692D1*
X732235Y1635843D1*
X732949Y1626772D1*
X732235Y1617701D1*
X730110Y1608852D1*
X726629Y1600446D1*
X721874Y1592688D1*
X715965Y1585768D1*
X709045Y1579858D1*
X706900Y1578425D1*
X714411Y1572962D1*
X721151Y1566222D1*
X726753Y1558510D1*
X731081Y1550017D1*
X734026Y1540951D1*
X735517Y1531538D1*
Y1522005D1*
X734026Y1512592D1*
X731081Y1503526D1*
X726753Y1495033D1*
X721151Y1487322D1*
X714411Y1480581D1*
X709411Y1476790D1*
X714411Y1472962D1*
X721151Y1466222D1*
X726753Y1458510D1*
X731081Y1450017D1*
X734026Y1440951D1*
X735517Y1431538D1*
Y1422005D1*
X734026Y1412592D1*
X731081Y1403526D1*
X726753Y1395033D1*
X721151Y1387322D1*
X714411Y1380581D1*
X709411Y1376790D1*
X714411Y1372962D1*
X721151Y1366222D1*
X726753Y1358510D1*
X731081Y1350017D1*
X734026Y1340951D1*
X735517Y1331538D1*
Y1322005D1*
X734026Y1312592D1*
X731081Y1303526D1*
X726753Y1295033D1*
X721151Y1287322D1*
X714411Y1280581D1*
X706699Y1274979D1*
X704017Y1273476D1*
X710680Y1268594D1*
X716783Y1262491D1*
X721856Y1255509D1*
X725774Y1247819D1*
X728441Y1239612D1*
X729791Y1231087D1*
Y1222457D1*
X728441Y1213932D1*
X725774Y1205724D1*
X721856Y1198034D1*
X716783Y1191052D1*
X710680Y1184949D1*
X703698Y1179877D1*
X701286Y1178440D1*
X709045Y1173685D1*
X715965Y1167776D1*
X721874Y1160856D1*
X726629Y1153097D1*
X730110Y1144692D1*
X732235Y1135843D1*
X732949Y1126772D1*
X732235Y1117701D1*
X730110Y1108852D1*
X726629Y1100446D1*
X721874Y1092688D1*
X715965Y1085768D1*
X709045Y1079858D1*
X704312Y1076798D1*
X709045Y1073685D1*
X715965Y1067776D1*
X721874Y1060856D1*
X726629Y1053097D1*
X730110Y1044692D1*
X732235Y1035843D1*
X732949Y1026772D1*
X732235Y1017701D1*
X730110Y1008852D1*
X726629Y1000446D1*
X721874Y992688D1*
X715965Y985768D1*
X709045Y979858D1*
X704312Y976798D1*
X709045Y973685D1*
X715965Y967776D1*
X721874Y960856D1*
X726629Y953097D1*
X730110Y944692D1*
X732235Y935843D1*
X732949Y926772D1*
X732235Y917701D1*
X730110Y908852D1*
X726629Y900446D1*
X721874Y892688D1*
X715965Y885768D1*
X709045Y879858D1*
X704312Y876798D1*
X709045Y873685D1*
X715965Y867776D1*
X721874Y860856D1*
X726629Y853097D1*
X730110Y844692D1*
X732235Y835843D1*
X732949Y826772D1*
X732235Y817701D1*
X730110Y808852D1*
X726629Y800446D1*
X721874Y792688D1*
X715965Y785768D1*
X709045Y779858D1*
X704312Y776798D1*
X709045Y773685D1*
X715965Y767776D1*
X721874Y760856D1*
X726629Y753097D1*
X730110Y744692D1*
X732235Y735843D1*
X732949Y726772D1*
X732235Y717701D1*
X730110Y708852D1*
X726629Y700446D1*
X721874Y692688D1*
X715965Y685768D1*
X709045Y679858D1*
X704312Y676798D1*
X709045Y673685D1*
X715965Y667776D1*
X721874Y660856D1*
X726629Y653097D1*
X730110Y644692D1*
X732235Y635843D1*
X732949Y626772D1*
X732235Y617701D1*
X730110Y608852D1*
X726629Y600446D1*
X721874Y592688D1*
X715965Y585768D1*
X709045Y579858D1*
X704312Y576798D1*
X709045Y573685D1*
X715965Y567776D1*
X721874Y560856D1*
X726629Y553097D1*
X730110Y544692D1*
X732235Y535843D1*
X732949Y526772D1*
X732235Y517701D1*
X730110Y508852D1*
X726629Y500446D1*
X721874Y492688D1*
X715965Y485768D1*
X709045Y479858D1*
X701286Y475104D1*
X692881Y471622D1*
X684031Y469497D1*
X674961Y468783D1*
X665890Y469497D1*
X657041Y471622D1*
X648635Y475104D1*
X640877Y479858D1*
X633957Y485768D1*
X628047Y492688D1*
X623293Y500446D1*
X619811Y508852D1*
X617686Y517701D1*
X616972Y526772D1*
X617686Y535843D1*
X619811Y544692D1*
X623293Y553097D1*
X628047Y560856D1*
X633957Y567776D1*
X640877Y573685D1*
X645609Y576745D1*
X640877Y579858D1*
X633957Y585768D1*
X628047Y592688D1*
X623293Y600446D1*
X619811Y608852D1*
X617686Y617701D1*
X616972Y626772D1*
X617686Y635843D1*
X619811Y644692D1*
X623293Y653097D1*
X628047Y660856D1*
X633957Y667776D1*
X640877Y673685D1*
X645609Y676745D1*
X640877Y679858D1*
X633957Y685768D1*
X628047Y692688D1*
X623293Y700446D1*
X619811Y708852D1*
X617686Y717701D1*
X616972Y726772D1*
X617686Y735843D1*
X619811Y744692D1*
X623293Y753097D1*
X628047Y760856D1*
X633957Y767776D1*
X640877Y773685D1*
X645609Y776745D1*
X640877Y779858D1*
X633957Y785768D1*
X628047Y792688D1*
X623293Y800446D1*
X619811Y808852D1*
X617686Y817701D1*
X616972Y826772D1*
X617686Y835843D1*
X619811Y844692D1*
X623293Y853097D1*
X628047Y860856D1*
X633957Y867776D1*
X640877Y873685D1*
X645609Y876745D1*
X640877Y879858D1*
X633957Y885768D1*
X628047Y892688D1*
X623293Y900446D1*
X619811Y908852D1*
X617686Y917701D1*
X616972Y926772D1*
X617686Y935843D1*
X619811Y944692D1*
X623293Y953097D1*
X628047Y960856D1*
X633957Y967776D1*
X640877Y973685D1*
X645609Y976745D1*
X640877Y979858D1*
X633957Y985768D1*
X628047Y992688D1*
X623293Y1000446D1*
X619811Y1008852D1*
X617686Y1017701D1*
X616972Y1026772D1*
X617686Y1035843D1*
X619811Y1044692D1*
X623293Y1053097D1*
X628047Y1060856D1*
X633957Y1067776D1*
X640877Y1073685D1*
X645609Y1076745D1*
X640877Y1079858D1*
X633957Y1085768D1*
X628047Y1092688D1*
X623293Y1100446D1*
X619811Y1108852D1*
X617686Y1117701D1*
X616972Y1126772D1*
X617686Y1135843D1*
X619811Y1144692D1*
X623293Y1153097D1*
X628047Y1160856D1*
X633957Y1167776D1*
X640877Y1173685D1*
X648682Y1178462D1*
X642633Y1182276D1*
X636070Y1187881D1*
X630465Y1194444D1*
X625955Y1201802D1*
X622652Y1209776D1*
X620638Y1218168D1*
X619961Y1226772D1*
X620638Y1235375D1*
X621549Y1239854D1*
X583286Y1278260D1*
X580657Y1281878D1*
X578626Y1285864D1*
X577244Y1290118D1*
X576545Y1294535D1*
X576457Y1312094D1*
X574604Y1305030D1*
X570839Y1295938D1*
X565696Y1287549D1*
X559306Y1280064D1*
X551822Y1273675D1*
X543432Y1268531D1*
X534340Y1264766D1*
X524772Y1262469D1*
X514961Y1261697D1*
X505150Y1262469D1*
X495581Y1264766D1*
X486490Y1268531D1*
X478100Y1273675D1*
X470615Y1280064D1*
X464226Y1287549D1*
X459083Y1295938D1*
X455318Y1305030D1*
X453020Y1314598D1*
X452248Y1324409D1*
X453020Y1334220D1*
X455318Y1343789D1*
X459083Y1352881D1*
X464226Y1361270D1*
X470615Y1368755D1*
X477147Y1374395D1*
X470615Y1380064D1*
X464226Y1387549D1*
X459083Y1395938D1*
X455318Y1405030D1*
X453020Y1414598D1*
X452248Y1424409D1*
X453020Y1434220D1*
X455318Y1443789D1*
X459083Y1452881D1*
X464226Y1461270D1*
X470615Y1468755D1*
X477147Y1474395D1*
X470615Y1480064D1*
X464226Y1487549D1*
X459083Y1495938D1*
X455318Y1505030D1*
X453020Y1514598D1*
X452248Y1524409D1*
X453020Y1534220D1*
X455318Y1543789D1*
X459083Y1552881D1*
X464226Y1561270D1*
X470615Y1568755D1*
X478100Y1575144D1*
X482146Y1577849D1*
X477962Y1581091D1*
X471642Y1587411D1*
X466387Y1594643D1*
X462328Y1602609D1*
X459566Y1611110D1*
X458168Y1619940D1*
Y1628879D1*
X459566Y1637709D1*
X462328Y1646210D1*
X466387Y1654176D1*
X471642Y1661408D1*
X477962Y1667728D1*
X485194Y1672983D1*
X493160Y1677042D1*
X501661Y1679804D1*
X510491Y1681202D1*
X519430D1*
X528260Y1679804D1*
X536761Y1677042D1*
X544727Y1672983D1*
X551959Y1667728D1*
X558280Y1661408D1*
X563534Y1654176D1*
X567593Y1646210D1*
X570356Y1637709D1*
X571753Y1628879D1*
X571924Y1624531D1*
X626635Y1569693D1*
X628026Y1567928D1*
X632008Y1569724D1*
X639256Y1575915D1*
X642990Y1578409D1*
X637301Y1582677D1*
X630866Y1589112D1*
X625517Y1596472D1*
X621387Y1604580D1*
X618575Y1613235D1*
X617151Y1622222D1*
Y1631322D1*
X618575Y1640308D1*
X621387Y1648963D1*
X625517Y1657071D1*
X630866Y1664432D1*
X637301Y1670866D1*
X644661Y1676215D1*
X645609Y1676745D1*
X640877Y1679858D1*
X633957Y1685768D1*
X628047Y1692688D1*
X623293Y1700446D1*
X619811Y1708852D1*
X617686Y1717701D1*
X616972Y1726772D1*
X617686Y1735843D1*
X619811Y1744692D1*
X623293Y1753097D1*
X628047Y1760856D1*
X632352Y1766038D1*
X614217Y1766028D1*
Y1887516D1*
X623403D1*
X1029791Y522457D2*
X1028441Y513932D1*
X1025774Y505724D1*
X1021856Y498034D1*
X1016783Y491052D1*
X1010680Y484949D1*
X1003698Y479877D1*
X996008Y475958D1*
X987801Y473291D1*
X979276Y471941D1*
X970646D1*
X962121Y473291D1*
X953913Y475958D1*
X946223Y479877D1*
X939241Y484949D1*
X933138Y491052D1*
X928066Y498034D1*
X924147Y505724D1*
X921480Y513932D1*
X920130Y522457D1*
Y531087D1*
X921480Y539612D1*
X924147Y547819D1*
X927991Y555377D1*
X924176Y558585D1*
X853286Y629598D1*
X850657Y633217D1*
X848626Y637202D1*
X847244Y641457D1*
X846545Y645874D1*
X846457Y739974D1*
X846545Y929008D1*
X847244Y933425D1*
X848626Y937680D1*
X850657Y941665D1*
X853286Y945283D1*
X919762Y1011885D1*
X921480Y1013932D1*
X920130Y1022457D1*
Y1031087D1*
X921480Y1039612D1*
X924147Y1047819D1*
X928066Y1055509D1*
X933138Y1062491D1*
X939241Y1068594D1*
X945873Y1073433D1*
X939256Y1077629D1*
X932008Y1083819D1*
X925818Y1091067D1*
X920837Y1099194D1*
X917189Y1108001D1*
X914965Y1117269D1*
X914217Y1126772D1*
X914965Y1136274D1*
X917189Y1145542D1*
X920837Y1154349D1*
X925818Y1162476D1*
X932008Y1169724D1*
X939256Y1175915D1*
X942990Y1178409D1*
X937301Y1182677D1*
X930866Y1189112D1*
X925517Y1196472D1*
X921387Y1204580D1*
X918575Y1213235D1*
X917151Y1222222D1*
Y1231322D1*
X918575Y1240308D1*
X921387Y1248963D1*
X925517Y1257071D1*
X930866Y1264432D1*
X937301Y1270866D1*
X943021Y1275118D1*
X935510Y1280581D1*
X928770Y1287322D1*
X923168Y1295033D1*
X918840Y1303526D1*
X915895Y1312592D1*
X914404Y1322005D1*
Y1331538D1*
X915895Y1340951D1*
X918840Y1350017D1*
X923168Y1358510D1*
X928770Y1366222D1*
X935510Y1372962D1*
X942990Y1378409D1*
X937301Y1382677D1*
X930866Y1389112D1*
X925517Y1396472D1*
X921387Y1404580D1*
X918575Y1413235D1*
X917151Y1422222D1*
Y1431322D1*
X918575Y1440308D1*
X921387Y1448963D1*
X925517Y1457071D1*
X930866Y1464432D1*
X937301Y1470866D1*
X944661Y1476215D1*
X945609Y1476745D1*
X940877Y1479858D1*
X933957Y1485768D1*
X928047Y1492688D1*
X923293Y1500446D1*
X919811Y1508852D1*
X917686Y1517701D1*
X916972Y1526772D1*
X917686Y1535843D1*
X919811Y1544692D1*
X923293Y1553097D1*
X928047Y1560856D1*
X933957Y1567776D1*
X940877Y1573685D1*
X945609Y1576745D1*
X940877Y1579858D1*
X933957Y1585768D1*
X928047Y1592688D1*
X923293Y1600446D1*
X919811Y1608852D1*
X917686Y1617701D1*
X916972Y1626772D1*
X917686Y1635843D1*
X919811Y1644692D1*
X923293Y1653097D1*
X928047Y1660856D1*
X933957Y1667776D1*
X940877Y1673685D1*
X945609Y1676745D1*
X940877Y1679858D1*
X933957Y1685768D1*
X928047Y1692688D1*
X923293Y1700446D1*
X919811Y1708852D1*
X917686Y1717701D1*
X916972Y1726772D1*
X917686Y1735843D1*
X919811Y1744692D1*
X923293Y1753097D1*
X928047Y1760856D1*
X933957Y1767776D1*
X940877Y1773685D1*
X945609Y1776745D1*
X940877Y1779858D1*
X933957Y1785768D1*
X928047Y1792688D1*
X923293Y1800446D1*
X919811Y1808852D1*
X917686Y1817701D1*
X916972Y1826772D1*
X917686Y1835843D1*
X919811Y1844692D1*
X923293Y1853097D1*
X928047Y1860856D1*
X933957Y1867776D1*
X940877Y1873685D1*
X948635Y1878440D1*
X957041Y1881921D1*
X965890Y1884046D1*
X974961Y1884760D1*
X984031Y1884046D1*
X992881Y1881921D1*
X1001286Y1878440D1*
X1009045Y1873685D1*
X1015965Y1867776D1*
X1021874Y1860856D1*
X1026629Y1853097D1*
X1030110Y1844692D1*
X1032235Y1835843D1*
X1032949Y1826772D1*
X1032235Y1817701D1*
X1030110Y1808852D1*
X1026629Y1800446D1*
X1021874Y1792688D1*
X1015965Y1785768D1*
X1009045Y1779858D1*
X1004312Y1776798D1*
X1009045Y1773685D1*
X1015965Y1767776D1*
X1021874Y1760856D1*
X1026629Y1753097D1*
X1030110Y1744692D1*
X1032235Y1735843D1*
X1032949Y1726772D1*
X1032235Y1717701D1*
X1030110Y1708852D1*
X1026629Y1700446D1*
X1021874Y1692688D1*
X1015965Y1685768D1*
X1009045Y1679858D1*
X1004312Y1676798D1*
X1009045Y1673685D1*
X1015965Y1667776D1*
X1021874Y1660856D1*
X1026629Y1653097D1*
X1030110Y1644692D1*
X1032235Y1635843D1*
X1032949Y1626772D1*
X1032235Y1617701D1*
X1030110Y1608852D1*
X1026629Y1600446D1*
X1021874Y1592688D1*
X1015965Y1585768D1*
X1009045Y1579858D1*
X1004312Y1576798D1*
X1009045Y1573685D1*
X1015965Y1567776D1*
X1021874Y1560856D1*
X1026629Y1553097D1*
X1030110Y1544692D1*
X1032235Y1535843D1*
X1032949Y1526772D1*
X1032235Y1517701D1*
X1030110Y1508852D1*
X1026629Y1500446D1*
X1021874Y1492688D1*
X1015965Y1485768D1*
X1009045Y1479858D1*
X1004312Y1476798D1*
X1009045Y1473685D1*
X1015965Y1467776D1*
X1021874Y1460856D1*
X1026629Y1453097D1*
X1030110Y1444692D1*
X1032235Y1435843D1*
X1032949Y1426772D1*
X1032235Y1417701D1*
X1030110Y1408852D1*
X1026629Y1400446D1*
X1021874Y1392688D1*
X1015965Y1385768D1*
X1009045Y1379858D1*
X1006900Y1378425D1*
X1014411Y1372962D1*
X1021151Y1366222D1*
X1026753Y1358510D1*
X1031081Y1350017D1*
X1034026Y1340951D1*
X1035517Y1331538D1*
Y1322005D1*
X1034026Y1312592D1*
X1031081Y1303526D1*
X1026753Y1295033D1*
X1021151Y1287322D1*
X1014411Y1280581D1*
X1006932Y1275134D1*
X1012621Y1270866D1*
X1019055Y1264432D1*
X1024404Y1257071D1*
X1028534Y1248963D1*
X1031346Y1240308D1*
X1032770Y1231322D1*
Y1222222D1*
X1031346Y1213235D1*
X1028534Y1204580D1*
X1024404Y1196472D1*
X1019055Y1189112D1*
X1012621Y1182677D1*
X1006900Y1178425D1*
X1014411Y1172962D1*
X1021151Y1166222D1*
X1026753Y1158510D1*
X1031081Y1150017D1*
X1034026Y1140951D1*
X1035517Y1131538D1*
Y1122005D1*
X1034026Y1112592D1*
X1031081Y1103526D1*
X1026753Y1095033D1*
X1021151Y1087322D1*
X1014411Y1080581D1*
X1006699Y1074979D1*
X1004017Y1073476D1*
X1010680Y1068594D1*
X1016783Y1062491D1*
X1021856Y1055509D1*
X1025774Y1047819D1*
X1028441Y1039612D1*
X1029791Y1031087D1*
X1029816Y1023114D1*
X1057856Y1051142D1*
X1057953Y1348660D1*
X1058864Y1354413D1*
X1060664Y1359954D1*
X1063308Y1365144D1*
X1066732Y1369857D1*
X1087108Y1390394D1*
X1082054Y1393684D1*
X1075374Y1399390D1*
X1069668Y1406070D1*
X1065079Y1413560D1*
X1061717Y1421676D1*
X1059665Y1430219D1*
X1058976Y1438976D1*
X1059665Y1447734D1*
X1061717Y1456277D1*
X1065079Y1464392D1*
X1069668Y1471883D1*
X1075374Y1478563D1*
X1082054Y1484269D1*
X1089545Y1488858D1*
X1097660Y1492220D1*
X1106203Y1494272D1*
X1114961Y1494961D1*
X1123718Y1494272D1*
X1132261Y1492220D1*
X1140377Y1488858D1*
X1147867Y1484269D1*
X1154547Y1478563D1*
X1160253Y1471883D1*
X1163509Y1466774D1*
X1267820Y1571106D1*
X1267839Y1582266D1*
X1259430Y1581003D1*
X1250491D1*
X1241661Y1582400D1*
X1233160Y1585163D1*
X1225194Y1589222D1*
X1217962Y1594476D1*
X1211642Y1600797D1*
X1206387Y1608029D1*
X1202328Y1615995D1*
X1199566Y1624496D1*
X1198168Y1633325D1*
Y1642265D1*
X1199566Y1651094D1*
X1202328Y1659596D1*
X1206387Y1667562D1*
X1211642Y1674794D1*
X1217962Y1681114D1*
X1222159Y1684340D1*
X1214232Y1690108D1*
X1207273Y1697067D1*
X1201490Y1705028D1*
X1197022Y1713797D1*
X1193980Y1723155D1*
X1192441Y1732875D1*
Y1742715D1*
X1193980Y1752436D1*
X1197022Y1761794D1*
X1201490Y1770563D1*
X1207273Y1778524D1*
X1214232Y1785483D1*
X1222193Y1791266D1*
X1230962Y1795734D1*
X1240320Y1798776D1*
X1250041Y1800315D1*
X1259881D1*
X1269601Y1798776D1*
X1278959Y1795734D1*
X1287728Y1791266D1*
X1295689Y1785483D1*
X1302648Y1778524D1*
X1304946Y1775609D1*
X1310615Y1782140D1*
X1317147Y1787781D1*
X1310615Y1793450D1*
X1304226Y1800934D1*
X1299083Y1809324D1*
X1295318Y1818416D1*
X1293020Y1827984D1*
X1292248Y1837795D1*
X1293020Y1847606D1*
X1295318Y1857175D1*
X1299083Y1866266D1*
X1304226Y1874656D1*
X1310615Y1882140D1*
X1318100Y1888530D1*
X1326490Y1893673D1*
X1335581Y1897438D1*
X1345150Y1899736D1*
X1354961Y1900508D1*
X1364772Y1899736D1*
X1374340Y1897438D1*
X1383432Y1893673D1*
X1391822Y1888530D1*
X1399306Y1882140D1*
X1405696Y1874656D1*
X1410839Y1866266D1*
X1414604Y1857175D1*
X1416902Y1847606D1*
X1417673Y1837795D1*
X1416902Y1827984D1*
X1414604Y1818416D1*
X1410839Y1809324D1*
X1405696Y1800934D1*
X1399306Y1793450D1*
X1392774Y1787810D1*
X1399306Y1782140D1*
X1405696Y1774656D1*
X1410839Y1766266D1*
X1414604Y1757175D1*
X1416902Y1747606D1*
X1417673Y1737795D1*
X1416902Y1727984D1*
X1414604Y1718416D1*
X1410839Y1709324D1*
X1405696Y1700934D1*
X1405350Y1700496D1*
X1417673Y1700508D1*
Y1575083D1*
X1392088D1*
X1391969Y1555277D1*
X1391056Y1549524D1*
X1389257Y1543983D1*
X1386613Y1538793D1*
X1383189Y1534080D1*
X1348731Y1499461D1*
X1242084Y1392814D1*
X1242083Y1375211D1*
X1247160Y1375867D1*
X1254887D1*
X1262521Y1374659D1*
X1269870Y1372270D1*
X1276756Y1368762D1*
X1283008Y1364220D1*
X1288472Y1358756D1*
X1293014Y1352504D1*
X1296522Y1345618D1*
X1298911Y1338269D1*
X1300138Y1330168D1*
X1305768Y1324526D1*
X1488151Y1324524D1*
X1493832Y1331050D1*
X1501197Y1337341D1*
X1509457Y1342402D1*
X1518406Y1346109D1*
X1527824Y1348370D1*
X1537480Y1349130D1*
X1547136Y1348370D1*
X1556555Y1346109D1*
X1565504Y1342402D1*
X1573764Y1337341D1*
X1581129Y1331050D1*
X1587420Y1323685D1*
X1592480Y1315425D1*
X1596188Y1306476D1*
X1598449Y1297058D1*
X1599209Y1287402D1*
X1598449Y1277745D1*
X1596188Y1268327D1*
X1592480Y1259378D1*
X1587420Y1251118D1*
X1581129Y1243753D1*
X1573764Y1237462D1*
X1565504Y1232402D1*
X1556555Y1228694D1*
X1547136Y1226433D1*
X1537480Y1225673D1*
X1527824Y1226433D1*
X1518406Y1228694D1*
X1509457Y1232402D1*
X1501197Y1237462D1*
X1493832Y1243753D1*
X1488209Y1250272D1*
X1287482Y1250394D1*
X1281728Y1251306D1*
X1276188Y1253105D1*
X1270997Y1255749D1*
X1266285Y1259173D1*
X1247677Y1277619D1*
X1242089Y1278374D1*
X1241969Y1053860D1*
X1241058Y1048106D1*
X1239257Y1042566D1*
X1236613Y1037375D1*
X1233189Y1032663D1*
X1198731Y998043D1*
X1035196Y834509D1*
X1035705Y826772D1*
X1035169Y819064D1*
X1097403Y756828D1*
X1234448Y756807D1*
X1240615Y764030D1*
X1247147Y769671D1*
X1240615Y775340D1*
X1234226Y782824D1*
X1229083Y791214D1*
X1225318Y800306D1*
X1223020Y809874D1*
X1222248Y819685D1*
X1223020Y829496D1*
X1225318Y839064D1*
X1229083Y848156D1*
X1234226Y856546D1*
X1240615Y864030D1*
X1247147Y869671D1*
X1240615Y875340D1*
X1234226Y882824D1*
X1229083Y891214D1*
X1225318Y900306D1*
X1223020Y909874D1*
X1222248Y919685D1*
X1223020Y929496D1*
X1225318Y939064D1*
X1229083Y948156D1*
X1234226Y956546D1*
X1240615Y964030D1*
X1248100Y970420D1*
X1256490Y975563D1*
X1265581Y979328D1*
X1275150Y981626D1*
X1284961Y982398D1*
X1294772Y981626D1*
X1304340Y979328D1*
X1313432Y975563D1*
X1321822Y970420D1*
X1329306Y964030D1*
X1335696Y956546D1*
X1340839Y948156D1*
X1344604Y939064D1*
X1346902Y929496D1*
X1347673Y919685D1*
X1346902Y909874D1*
X1344604Y900306D1*
X1340839Y891214D1*
X1335696Y882824D1*
X1329306Y875340D1*
X1322774Y869699D1*
X1329306Y864030D1*
X1335696Y856546D1*
X1340839Y848156D1*
X1344604Y839064D1*
X1346902Y829496D1*
X1347673Y819685D1*
X1346902Y809874D1*
X1344604Y800306D1*
X1340839Y791214D1*
X1335696Y782824D1*
X1329306Y775340D1*
X1322774Y769699D1*
X1329306Y764030D1*
X1335696Y756546D1*
X1340839Y748156D1*
X1344604Y739064D1*
X1346902Y729496D1*
X1347673Y719685D1*
X1346902Y709874D1*
X1344604Y700306D1*
X1340839Y691214D1*
X1335696Y682824D1*
X1329306Y675340D1*
X1321822Y668950D1*
X1317776Y666245D1*
X1321959Y663004D1*
X1328280Y656684D1*
X1333534Y649451D1*
X1337593Y641486D1*
X1340356Y632984D1*
X1341753Y624155D1*
Y615215D1*
X1340356Y606386D1*
X1337593Y597885D1*
X1333534Y589919D1*
X1328280Y582686D1*
X1321959Y576366D1*
X1314727Y571112D1*
X1306761Y567052D1*
X1298260Y564290D1*
X1289430Y562892D1*
X1280491D1*
X1271661Y564290D1*
X1263160Y567052D1*
X1255194Y571112D1*
X1247962Y576366D1*
X1241642Y582686D1*
X1236387Y589919D1*
X1235678Y591185D1*
X1073782Y591181D1*
X1039535Y557066D1*
X1035917Y554437D1*
X1031932Y552406D1*
X1027677Y551024D1*
X1025474Y550587D1*
X1025774Y547819D1*
X1028441Y539612D1*
X1029791Y531087D1*
Y522457D1*
X917364Y646014D2*
X920837Y654349D1*
X925818Y662476D1*
X932008Y669724D1*
X939256Y675915D1*
X940510Y676753D1*
X935510Y680581D1*
X928770Y687322D1*
X923168Y695033D1*
X918840Y703526D1*
X915895Y712592D1*
X914404Y722005D1*
Y731538D1*
X915895Y740951D1*
X918840Y750017D1*
X923168Y758510D1*
X928770Y766222D1*
X935510Y772962D1*
X940510Y776753D1*
X935510Y780581D1*
X928770Y787322D1*
X923168Y795033D1*
X918840Y803526D1*
X915895Y812592D1*
X914404Y822005D1*
Y831538D1*
X915895Y840951D1*
X918840Y850017D1*
X923168Y858510D1*
X928770Y866222D1*
X935510Y872962D1*
X940510Y876753D1*
X935510Y880581D1*
X928770Y887322D1*
X923168Y895033D1*
X918840Y903526D1*
X915895Y912592D1*
X914404Y922005D1*
X914257Y925748D1*
X903440Y914940D1*
X903465Y659902D1*
X917369Y646013D1*
X1009411Y676753D2*
X1014411Y672962D1*
X1021151Y666222D1*
X1026753Y658510D1*
X1031081Y650017D1*
X1034026Y640951D1*
X1035304Y633332D1*
X1043457Y641360D1*
X1047075Y643988D1*
X1051060Y646020D1*
X1055315Y647402D1*
X1059732Y648101D1*
X1153832Y648189D1*
X1235612D1*
X1238873Y653171D1*
X1244677Y659969D1*
X1251475Y665773D1*
X1252159Y666230D1*
X1244232Y671997D1*
X1237273Y678957D1*
X1234428Y682567D1*
X1079135Y682677D1*
X1073382Y683589D1*
X1067841Y685388D1*
X1062651Y688033D1*
X1057938Y691457D1*
X1034509Y714724D1*
X1032732Y708001D1*
X1029084Y699194D1*
X1024104Y691067D1*
X1017913Y683819D1*
X1010665Y677629D1*
X1009411Y676790D1*
X1132067Y1155723D2*
X1140550Y1158448D1*
X1150118Y1159963D1*
X1159803D1*
X1167829Y1158755D1*
X1167839Y1366129D1*
X1132101Y1330390D1*
X1132083Y1155741D1*
X576454Y1512354D2*
X574604Y1505030D1*
X570839Y1495938D1*
X565696Y1487549D1*
X559306Y1480064D1*
X552774Y1474424D1*
X559306Y1468755D1*
X565696Y1461270D1*
X570839Y1452881D1*
X574604Y1443789D1*
X576454Y1436465D1*
X576457Y1512113D1*
X575612Y1540215D2*
X576454Y1536465D1*
Y1412354D2*
X574604Y1405030D1*
X570839Y1395938D1*
X565696Y1387549D1*
X559306Y1380064D1*
X552774Y1374424D1*
X559306Y1368755D1*
X565696Y1361270D1*
X570839Y1352881D1*
X574604Y1343789D1*
X576454Y1336465D1*
X576457Y1412139D1*
X1176499Y1841614D2*
X1174983Y1832046D1*
X1171991Y1822835D1*
X1167593Y1814203D1*
X1161899Y1806367D1*
X1155050Y1799518D1*
X1147214Y1793824D1*
X1138583Y1789427D1*
X1129371Y1786434D1*
X1119803Y1784919D1*
X1110118D1*
X1100550Y1786434D1*
X1091339Y1789427D1*
X1082707Y1793824D1*
X1074871Y1799518D1*
X1068022Y1806367D1*
X1062328Y1814203D1*
X1057930Y1822835D1*
X1054938Y1832046D1*
X1053423Y1841614D1*
Y1851299D1*
X1054938Y1860867D1*
X1057930Y1870079D1*
X1062328Y1878710D1*
X1068022Y1886546D1*
X1074871Y1893395D1*
X1082707Y1899089D1*
X1091339Y1903487D1*
X1100550Y1906479D1*
X1110118Y1907995D1*
X1119803D1*
X1129371Y1906479D1*
X1138583Y1903487D1*
X1147214Y1899089D1*
X1155050Y1893395D1*
X1161899Y1886546D1*
X1167593Y1878710D1*
X1171991Y1870079D1*
X1174983Y1860867D1*
X1176499Y1851299D1*
Y1841614D1*
X570772Y1179860D2*
X569398Y1171182D1*
X566684Y1162828D1*
X562696Y1155000D1*
X557531Y1147894D1*
X551319Y1141681D1*
X544213Y1136517D1*
X536385Y1132529D1*
X528030Y1129815D1*
X519353Y1128441D1*
X510568D1*
X501891Y1129815D1*
X493537Y1132529D1*
X485709Y1136517D1*
X478602Y1141681D1*
X472390Y1147894D1*
X467226Y1155000D1*
X463238Y1162828D1*
X460524Y1171182D1*
X459150Y1179860D1*
Y1188644D1*
X460524Y1197322D1*
X463238Y1205676D1*
X467226Y1213504D1*
X472390Y1220610D1*
X478602Y1226823D1*
X485709Y1231987D1*
X493537Y1235975D1*
X501891Y1238689D1*
X510568Y1240063D1*
X519353D1*
X528030Y1238689D1*
X536385Y1235975D1*
X544213Y1231987D1*
X551319Y1226823D1*
X557531Y1220610D1*
X562696Y1213504D1*
X566684Y1205676D1*
X569398Y1197322D1*
X570772Y1188644D1*
Y1179860D1*
X1813241Y1706575D2*
X1925866D1*
Y1584764D1*
X1804055D1*
Y1706575D1*
X1813241D1*
X1725678Y1640891D2*
X1724184Y1631451D1*
X1721230Y1622362D1*
X1716891Y1613846D1*
X1711273Y1606114D1*
X1704516Y1599357D1*
X1696783Y1593739D1*
X1688268Y1589400D1*
X1679178Y1586446D1*
X1669739Y1584951D1*
X1660182D1*
X1650743Y1586446D1*
X1641654Y1589400D1*
X1633138Y1593739D1*
X1625406Y1599357D1*
X1618648Y1606114D1*
X1613030Y1613846D1*
X1608692Y1622362D1*
X1605738Y1631451D1*
X1604243Y1640891D1*
Y1650448D1*
X1605738Y1659887D1*
X1608692Y1668976D1*
X1613030Y1677492D1*
X1618648Y1685224D1*
X1625406Y1691982D1*
X1633138Y1697600D1*
X1641654Y1701938D1*
X1650743Y1704892D1*
X1660182Y1706387D1*
X1669739D1*
X1679178Y1704892D1*
X1688268Y1701938D1*
X1696783Y1697600D1*
X1704516Y1691982D1*
X1711273Y1685224D1*
X1716891Y1677492D1*
X1721230Y1668976D1*
X1724184Y1659887D1*
X1725678Y1650448D1*
Y1640891D1*
X2557640Y1904516D2*
X2556097Y1894772D1*
X2553049Y1885388D1*
X2548570Y1876597D1*
X2542770Y1868615D1*
X2535794Y1861639D1*
X2527812Y1855840D1*
X2519021Y1851361D1*
X2509638Y1848312D1*
X2499894Y1846769D1*
X2490028D1*
X2480283Y1848312D1*
X2470900Y1851361D1*
X2462109Y1855840D1*
X2454127Y1861639D1*
X2447151Y1868615D1*
X2441352Y1876597D1*
X2436873Y1885388D1*
X2433824Y1894772D1*
X2432281Y1904516D1*
Y1914382D1*
X2433824Y1924126D1*
X2436873Y1933509D1*
X2441352Y1942301D1*
X2447151Y1950282D1*
X2451819Y1955125D1*
X427482Y1952085D1*
X427461Y418066D1*
X3062196Y425848D1*
X3032699Y1955986D1*
X2538045Y1955245D1*
X2542770Y1950282D1*
X2548570Y1942301D1*
X2553049Y1933509D1*
X2556097Y1924126D1*
X2557640Y1914382D1*
Y1904516D1*
X2005210Y1700669D2*
X2113898D1*
Y1582795D1*
X1996024D1*
Y1700669D1*
X2005210D1*
X2548756Y1637108D2*
X2547308Y1627974D1*
X2544450Y1619178D1*
X2540252Y1610938D1*
X2534816Y1603455D1*
X2528277Y1596916D1*
X2520794Y1591480D1*
X2512554Y1587282D1*
X2503759Y1584424D1*
X2494625Y1582976D1*
X2485375D1*
X2476241Y1584424D1*
X2467446Y1587282D1*
X2459206Y1591480D1*
X2451723Y1596916D1*
X2445184Y1603455D1*
X2439748Y1610938D1*
X2435550Y1619178D1*
X2432692Y1627974D1*
X2431244Y1637108D1*
Y1646357D1*
X2432692Y1655491D1*
X2435550Y1664286D1*
X2439748Y1672526D1*
X2445184Y1680009D1*
X2451723Y1686549D1*
X2459206Y1691984D1*
X2467446Y1696182D1*
X2476241Y1699041D1*
X2485375Y1700488D1*
X2494625D1*
X2503759Y1699041D1*
X2512554Y1696182D1*
X2520794Y1691984D1*
X2528277Y1686549D1*
X2534816Y1680009D1*
X2540252Y1672526D1*
X2544450Y1664286D1*
X2547308Y1655491D1*
X2548756Y1646357D1*
Y1637108D1*
X1920772Y1428678D2*
X1919398Y1420001D1*
X1916684Y1411647D1*
X1912696Y1403819D1*
X1907531Y1396713D1*
X1901319Y1390500D1*
X1894213Y1385336D1*
X1886385Y1381348D1*
X1878030Y1378634D1*
X1869353Y1377260D1*
X1860568D1*
X1851891Y1378634D1*
X1843537Y1381348D1*
X1835709Y1385336D1*
X1828602Y1390500D1*
X1822390Y1396713D1*
X1817226Y1403819D1*
X1813238Y1411647D1*
X1810524Y1420001D1*
X1809150Y1428678D1*
Y1437463D1*
X1810524Y1446140D1*
X1813238Y1454495D1*
X1817226Y1462323D1*
X1822390Y1469429D1*
X1828602Y1475642D1*
X1835709Y1480806D1*
X1843537Y1484794D1*
X1851891Y1487508D1*
X1860568Y1488882D1*
X1869353D1*
X1878030Y1487508D1*
X1886385Y1484794D1*
X1894213Y1480806D1*
X1901319Y1475642D1*
X1907531Y1469429D1*
X1912696Y1462323D1*
X1916684Y1454495D1*
X1919398Y1446140D1*
X1920772Y1437463D1*
Y1428678D1*
X2328252D2*
X2326878Y1420001D1*
X2324164Y1411647D1*
X2320176Y1403819D1*
X2315012Y1396713D1*
X2308799Y1390500D1*
X2301693Y1385336D1*
X2293865Y1381348D1*
X2285510Y1378634D1*
X2276833Y1377260D1*
X2268049D1*
X2259371Y1378634D1*
X2251017Y1381348D1*
X2243189Y1385336D1*
X2236083Y1390500D1*
X2229870Y1396713D1*
X2224706Y1403819D1*
X2220718Y1411647D1*
X2218004Y1420001D1*
X2216630Y1428678D1*
Y1437463D1*
X2218004Y1446140D1*
X2220718Y1454495D1*
X2224706Y1462323D1*
X2229870Y1469429D1*
X2236083Y1475642D1*
X2243189Y1480806D1*
X2251017Y1484794D1*
X2259371Y1487508D1*
X2268049Y1488882D1*
X2276833D1*
X2285510Y1487508D1*
X2293865Y1484794D1*
X2301693Y1480806D1*
X2308799Y1475642D1*
X2315012Y1469429D1*
X2320176Y1462323D1*
X2324164Y1454495D1*
X2326878Y1446140D1*
X2328252Y1437463D1*
Y1428678D1*
X2870772Y834190D2*
X2869398Y825513D1*
X2866684Y817159D1*
X2862696Y809331D1*
X2857531Y802224D1*
X2851319Y796012D1*
X2844213Y790848D1*
X2836385Y786860D1*
X2828030Y784146D1*
X2819353Y782772D1*
X2810568D1*
X2801891Y784146D1*
X2793537Y786860D1*
X2785709Y790848D1*
X2778602Y796012D1*
X2772390Y802224D1*
X2767226Y809331D1*
X2763238Y817159D1*
X2760524Y825513D1*
X2759150Y834190D1*
Y842975D1*
X2760524Y851652D1*
X2763238Y860007D1*
X2767226Y867835D1*
X2772390Y874941D1*
X2778602Y881154D1*
X2785709Y886318D1*
X2793537Y890306D1*
X2801891Y893020D1*
X2810568Y894394D1*
X2819353D1*
X2828030Y893020D1*
X2836385Y890306D1*
X2844213Y886318D1*
X2851319Y881154D1*
X2857531Y874941D1*
X2862696Y867835D1*
X2866684Y860007D1*
X2869398Y851652D1*
X2870772Y842975D1*
Y834190D1*
X3027640Y861209D2*
X3026097Y851465D1*
X3023049Y842081D1*
X3018570Y833290D1*
X3012770Y825308D1*
X3005794Y818332D1*
X2997812Y812533D1*
X2989021Y808054D1*
X2979638Y805005D1*
X2969894Y803462D1*
X2960028D1*
X2950283Y805005D1*
X2940900Y808054D1*
X2932109Y812533D1*
X2924127Y818332D1*
X2917151Y825308D1*
X2911352Y833290D1*
X2906873Y842081D1*
X2903824Y851465D1*
X2902281Y861209D1*
Y871075D1*
X2903824Y880819D1*
X2906873Y890202D1*
X2911352Y898993D1*
X2917151Y906975D1*
X2924127Y913951D1*
X2932109Y919751D1*
X2940900Y924230D1*
X2950283Y927278D1*
X2960028Y928822D1*
X2969894D1*
X2979638Y927278D1*
X2989021Y924230D1*
X2997812Y919751D1*
X3005794Y913951D1*
X3012770Y906975D1*
X3018570Y898993D1*
X3023049Y890202D1*
X3026097Y880819D1*
X3027640Y871075D1*
Y861209D1*
X2477031Y1518245D2*
X2475657Y1509568D1*
X2472944Y1501214D1*
X2468955Y1493386D1*
X2463791Y1486280D1*
X2457579Y1480067D1*
X2450472Y1474903D1*
X2442644Y1470915D1*
X2434290Y1468201D1*
X2425613Y1466827D1*
X2416828D1*
X2408151Y1468201D1*
X2399797Y1470915D1*
X2391969Y1474903D1*
X2384862Y1480067D1*
X2378650Y1486280D1*
X2373486Y1493386D1*
X2369497Y1501214D1*
X2366783Y1509568D1*
X2365409Y1518245D1*
Y1527030D1*
X2366783Y1535707D1*
X2369497Y1544062D1*
X2373486Y1551890D1*
X2378650Y1558996D1*
X2384862Y1565209D1*
X2391969Y1570373D1*
X2399797Y1574361D1*
X2408151Y1577075D1*
X2416828Y1578449D1*
X2425613D1*
X2434290Y1577075D1*
X2442644Y1574361D1*
X2450472Y1570373D1*
X2457579Y1565209D1*
X2463791Y1558996D1*
X2468955Y1551890D1*
X2472944Y1544062D1*
X2475657Y1535707D1*
X2477031Y1527030D1*
Y1518245D1*
X2753241Y1474291D2*
X2865866D1*
Y1352480D1*
X2851692D1*
X2856891Y1345209D1*
X2861230Y1336693D1*
X2864184Y1327604D1*
X2865678Y1318164D1*
Y1308608D1*
X2864184Y1299168D1*
X2861230Y1290079D1*
X2856891Y1281563D1*
X2851273Y1273831D1*
X2844516Y1267073D1*
X2839719Y1263417D1*
X2844516Y1259698D1*
X2851273Y1252941D1*
X2856891Y1245209D1*
X2861230Y1236693D1*
X2864184Y1227604D1*
X2865678Y1218164D1*
Y1208608D1*
X2864184Y1199168D1*
X2861230Y1190079D1*
X2856891Y1181563D1*
X2851273Y1173831D1*
X2844516Y1167073D1*
X2836783Y1161455D1*
X2828268Y1157117D1*
X2819178Y1154163D1*
X2809739Y1152668D1*
X2800182D1*
X2790743Y1154163D1*
X2781654Y1157117D1*
X2773138Y1161455D1*
X2765406Y1167073D1*
X2758648Y1173831D1*
X2753030Y1181563D1*
X2748692Y1190079D1*
X2745738Y1199168D1*
X2744243Y1208608D1*
Y1218164D1*
X2745738Y1227604D1*
X2748692Y1236693D1*
X2753030Y1245209D1*
X2758648Y1252941D1*
X2765406Y1259698D1*
X2770202Y1263354D1*
X2765406Y1267073D1*
X2758648Y1273831D1*
X2753030Y1281563D1*
X2748692Y1290079D1*
X2745738Y1299168D1*
X2744243Y1308608D1*
Y1318164D1*
X2745738Y1327604D1*
X2748692Y1336693D1*
X2753030Y1345209D1*
X2758289Y1352486D1*
X2744055Y1352480D1*
Y1474291D1*
X2753241D1*
X2860772Y1747576D2*
X2859398Y1738899D1*
X2856684Y1730545D1*
X2852696Y1722717D1*
X2847531Y1715610D1*
X2841319Y1709398D1*
X2834213Y1704234D1*
X2826385Y1700245D1*
X2818030Y1697531D1*
X2809353Y1696157D1*
X2800568D1*
X2791891Y1697531D1*
X2783537Y1700245D1*
X2775709Y1704234D1*
X2768602Y1709398D1*
X2762390Y1715610D1*
X2757226Y1722717D1*
X2753238Y1730545D1*
X2750524Y1738899D1*
X2749150Y1747576D1*
Y1756361D1*
X2750524Y1765038D1*
X2753238Y1773392D1*
X2757226Y1781220D1*
X2762390Y1788327D1*
X2768602Y1794539D1*
X2775709Y1799703D1*
X2783537Y1803692D1*
X2791891Y1806406D1*
X2800568Y1807780D1*
X2809353D1*
X2818030Y1806406D1*
X2826385Y1803692D1*
X2834213Y1799703D1*
X2841319Y1794539D1*
X2847531Y1788327D1*
X2852696Y1781220D1*
X2856684Y1773392D1*
X2859398Y1765038D1*
X2860772Y1756361D1*
Y1747576D1*
X2453291D2*
X2451917Y1738899D1*
X2449203Y1730545D1*
X2445215Y1722717D1*
X2440051Y1715610D1*
X2433839Y1709398D1*
X2426732Y1704234D1*
X2418904Y1700245D1*
X2410550Y1697531D1*
X2401873Y1696157D1*
X2393088D1*
X2384411Y1697531D1*
X2376056Y1700245D1*
X2368228Y1704234D1*
X2361122Y1709398D1*
X2354909Y1715610D1*
X2349745Y1722717D1*
X2345757Y1730545D1*
X2343043Y1738899D1*
X2341669Y1747576D1*
Y1756361D1*
X2343043Y1765038D1*
X2345757Y1773392D1*
X2349745Y1781220D1*
X2354909Y1788327D1*
X2361122Y1794539D1*
X2368228Y1799703D1*
X2376056Y1803692D1*
X2384411Y1806406D1*
X2393088Y1807780D1*
X2401873D1*
X2410550Y1806406D1*
X2418904Y1803692D1*
X2426732Y1799703D1*
X2433839Y1794539D1*
X2440051Y1788327D1*
X2445215Y1781220D1*
X2449203Y1773392D1*
X2451917Y1765038D1*
X2453291Y1756361D1*
Y1747576D1*
X2518979Y1387493D2*
X2530168Y1398581D1*
X2534762Y1401651D1*
X2539946Y1403563D1*
X2545433Y1404213D1*
X2606332Y1404140D1*
X2611752Y1403062D1*
X2616769Y1400749D1*
X2621113Y1397323D1*
X2632203Y1386131D1*
X2635273Y1381537D1*
X2637185Y1376353D1*
X2637835Y1370860D1*
X2637762Y1349337D1*
X2636684Y1343917D1*
X2634371Y1338900D1*
X2630945Y1334556D1*
X2634547Y1327551D1*
X2636642Y1321106D1*
X2637702Y1314412D1*
Y1307635D1*
X2636642Y1300941D1*
X2634547Y1294496D1*
X2631470Y1288458D1*
X2627487Y1282975D1*
X2622694Y1278182D1*
X2617211Y1274199D1*
X2611173Y1271122D1*
X2604728Y1269028D1*
X2598034Y1267967D1*
X2557900Y1267835D1*
X2551887Y1267967D1*
X2545193Y1269028D1*
X2538748Y1271122D1*
X2532710Y1274199D1*
X2527227Y1278182D1*
X2522434Y1282975D1*
X2518451Y1288458D1*
X2515374Y1294496D1*
X2513280Y1300941D1*
X2512219Y1307635D1*
Y1314412D1*
X2513280Y1321106D1*
X2515374Y1327551D1*
X2518451Y1333589D1*
X2518971Y1334562D1*
X2515550Y1338900D1*
X2513238Y1343917D1*
X2512159Y1349337D1*
Y1372710D1*
X2513238Y1378130D1*
X2515550Y1383147D1*
X2518976Y1387491D1*
X3020772Y1015293D2*
X3019398Y1006615D1*
X3016684Y998261D1*
X3012696Y990433D1*
X3007531Y983327D1*
X3001319Y977114D1*
X2994213Y971950D1*
X2986385Y967962D1*
X2978030Y965248D1*
X2969353Y963874D1*
X2960568D1*
X2951891Y965248D1*
X2943537Y967962D1*
X2935709Y971950D1*
X2928602Y977114D1*
X2922390Y983327D1*
X2917226Y990433D1*
X2913238Y998261D1*
X2910524Y1006615D1*
X2909150Y1015293D1*
Y1024077D1*
X2910524Y1032755D1*
X2913238Y1041109D1*
X2917226Y1048937D1*
X2922390Y1056043D1*
X2928602Y1062256D1*
X2935709Y1067420D1*
X2943537Y1071408D1*
X2951891Y1074122D1*
X2960568Y1075496D1*
X2969353D1*
X2978030Y1074122D1*
X2986385Y1071408D1*
X2994213Y1067420D1*
X3001319Y1062256D1*
X3007531Y1056043D1*
X3012696Y1048937D1*
X3016684Y1041109D1*
X3019398Y1032755D1*
X3020772Y1024077D1*
Y1015293D1*
X2613291D2*
X2611917Y1006615D1*
X2609203Y998261D1*
X2605215Y990433D1*
X2600051Y983327D1*
X2593839Y977114D1*
X2586732Y971950D1*
X2578904Y967962D1*
X2570550Y965248D1*
X2561873Y963874D1*
X2553088D1*
X2544411Y965248D1*
X2536056Y967962D1*
X2528228Y971950D1*
X2521122Y977114D1*
X2517982Y980017D1*
X2517992Y970591D1*
X2411929D1*
Y1076654D1*
X2517992D1*
Y1059392D1*
X2524573Y1064978D1*
X2532064Y1069567D1*
X2540180Y1072929D1*
X2548723Y1074980D1*
X2557480Y1075669D1*
X2566238Y1074980D1*
X2574781Y1072929D1*
X2582896Y1069567D1*
X2590387Y1064978D1*
X2597067Y1059272D1*
X2602773Y1052592D1*
X2607362Y1045101D1*
X2610724Y1036986D1*
X2612776Y1028442D1*
X2613465Y1019685D1*
X2613291Y1015293D1*
X1596499Y1151850D2*
X1594983Y1142282D1*
X1591991Y1133071D1*
X1587593Y1124440D1*
X1581899Y1116604D1*
X1575050Y1109755D1*
X1567214Y1104060D1*
X1558583Y1099663D1*
X1549371Y1096671D1*
X1539803Y1095155D1*
X1530118D1*
X1520550Y1096671D1*
X1511339Y1099663D1*
X1502707Y1104060D1*
X1494871Y1109755D1*
X1488022Y1116604D1*
X1482328Y1124440D1*
X1477930Y1133071D1*
X1474938Y1142282D1*
X1473423Y1151850D1*
Y1161535D1*
X1474938Y1171104D1*
X1477930Y1180315D1*
X1482328Y1188946D1*
X1488022Y1196782D1*
X1494871Y1203631D1*
X1502707Y1209325D1*
X1511339Y1213723D1*
X1520550Y1216715D1*
X1530118Y1218231D1*
X1539803D1*
X1549371Y1216715D1*
X1558583Y1213723D1*
X1567214Y1209325D1*
X1575050Y1203631D1*
X1581899Y1196782D1*
X1587593Y1188946D1*
X1591991Y1180315D1*
X1594983Y1171104D1*
X1596499Y1161535D1*
Y1151850D1*
X2397828Y1019461D2*
X2396526Y1011241D1*
X2393955Y1003328D1*
X2390177Y995913D1*
X2385286Y989181D1*
X2379402Y983297D1*
X2372669Y978406D1*
X2365255Y974627D1*
X2357341Y972056D1*
X2349122Y970755D1*
X2340799D1*
X2332580Y972056D1*
X2324667Y974627D1*
X2317252Y978406D1*
X2310520Y983297D1*
X2304635Y989181D1*
X2299744Y995913D1*
X2295966Y1003328D1*
X2293395Y1011241D1*
X2292093Y1019461D1*
Y1027783D1*
X2293395Y1036003D1*
X2295966Y1043916D1*
X2299744Y1051331D1*
X2304635Y1058063D1*
X2310520Y1063948D1*
X2317252Y1068839D1*
X2324667Y1072617D1*
X2332580Y1075188D1*
X2340799Y1076490D1*
X2349122D1*
X2357341Y1075188D1*
X2365255Y1072617D1*
X2372669Y1068839D1*
X2379402Y1063948D1*
X2385286Y1058063D1*
X2390177Y1051331D1*
X2393955Y1043916D1*
X2396526Y1036003D1*
X2397828Y1027783D1*
Y1019461D1*
X1829018Y526654D2*
X1827503Y517085D1*
X1824510Y507874D1*
X1820113Y499243D1*
X1814419Y491407D1*
X1807570Y484558D1*
X1799734Y478864D1*
X1791102Y474466D1*
X1781891Y471474D1*
X1772323Y469958D1*
X1762638D1*
X1753070Y471474D1*
X1743858Y474466D1*
X1735227Y478864D1*
X1727391Y484558D1*
X1720542Y491407D1*
X1714848Y499243D1*
X1710450Y507874D1*
X1707458Y517085D1*
X1705942Y526654D1*
Y536339D1*
X1707458Y545907D1*
X1710450Y555118D1*
X1714848Y563749D1*
X1720542Y571585D1*
X1727391Y578434D1*
X1735227Y584129D1*
X1743858Y588526D1*
X1753070Y591518D1*
X1762638Y593034D1*
X1772323D1*
X1781891Y591518D1*
X1791102Y588526D1*
X1799734Y584129D1*
X1807570Y578434D1*
X1814419Y571585D1*
X1820113Y563749D1*
X1824510Y555118D1*
X1827503Y545907D1*
X1829018Y536339D1*
Y526654D1*
X1826499Y664449D2*
X1824983Y654881D1*
X1821991Y645669D1*
X1817593Y637038D1*
X1811899Y629202D1*
X1805050Y622353D1*
X1797214Y616659D1*
X1788583Y612261D1*
X1779371Y609269D1*
X1769803Y607753D1*
X1760118D1*
X1750550Y609269D1*
X1741339Y612261D1*
X1732707Y616659D1*
X1724871Y622353D1*
X1718022Y629202D1*
X1712328Y637038D1*
X1707930Y645669D1*
X1704938Y654881D1*
X1703423Y664449D1*
Y674134D1*
X1704938Y683702D1*
X1707930Y692913D1*
X1712328Y701545D1*
X1718022Y709381D1*
X1724871Y716230D1*
X1732707Y721924D1*
X1741339Y726322D1*
X1750550Y729314D1*
X1760118Y730829D1*
X1769803D1*
X1779371Y729314D1*
X1788583Y726322D1*
X1797214Y721924D1*
X1805050Y716230D1*
X1811899Y709381D1*
X1817593Y701545D1*
X1821991Y692913D1*
X1824983Y683702D1*
X1826499Y674134D1*
Y664449D1*
X2233979D2*
X2232463Y654881D1*
X2229471Y645669D1*
X2225073Y637038D1*
X2219379Y629202D1*
X2212530Y622353D1*
X2204694Y616659D1*
X2196063Y612261D1*
X2186852Y609269D1*
X2177283Y607753D1*
X2167598D1*
X2158030Y609269D1*
X2148819Y612261D1*
X2140188Y616659D1*
X2132352Y622353D1*
X2125503Y629202D1*
X2119808Y637038D1*
X2115411Y645669D1*
X2112419Y654881D1*
X2110903Y664449D1*
Y674134D1*
X2112419Y683702D1*
X2115411Y692913D1*
X2119808Y701545D1*
X2125503Y709381D1*
X2132352Y716230D1*
X2140188Y721924D1*
X2142385Y723154D1*
X2134871Y728652D1*
X2128022Y735501D1*
X2122328Y743337D1*
X2117930Y751969D1*
X2114938Y761180D1*
X2113423Y770748D1*
Y780433D1*
X2114938Y790001D1*
X2117930Y799213D1*
X2122328Y807844D1*
X2128022Y815680D1*
X2134871Y822529D1*
X2142707Y828223D1*
X2151339Y832621D1*
X2160550Y835613D1*
X2170118Y837129D1*
X2179803D1*
X2189371Y835613D1*
X2198583Y832621D1*
X2207214Y828223D1*
X2215050Y822529D1*
X2221899Y815680D1*
X2227593Y807844D1*
X2231991Y799213D1*
X2234983Y790001D1*
X2236499Y780433D1*
Y770748D1*
X2234983Y761180D1*
X2231991Y751969D1*
X2227593Y743337D1*
X2221899Y735501D1*
X2215050Y728652D1*
X2207214Y722958D1*
X2205017Y721728D1*
X2212530Y716230D1*
X2219379Y709381D1*
X2225073Y701545D1*
X2229471Y692913D1*
X2232463Y683702D1*
X2233979Y674134D1*
Y664449D1*
X2236499Y1178228D2*
X2234983Y1168660D1*
X2231991Y1159449D1*
X2227593Y1150818D1*
X2221899Y1142982D1*
X2215050Y1136133D1*
X2207214Y1130438D1*
X2198583Y1126041D1*
X2189371Y1123049D1*
X2179803Y1121533D1*
X2170118D1*
X2160550Y1123049D1*
X2151339Y1126041D1*
X2142707Y1130438D1*
X2134871Y1136133D1*
X2128022Y1142982D1*
X2122328Y1150818D1*
X2117930Y1159449D1*
X2114938Y1168660D1*
X2113423Y1178228D1*
Y1187913D1*
X2114938Y1197482D1*
X2117930Y1206693D1*
X2122328Y1215324D1*
X2128022Y1223160D1*
X2134871Y1230009D1*
X2142707Y1235703D1*
X2151339Y1240101D1*
X2160550Y1243093D1*
X2170118Y1244609D1*
X2179803D1*
X2189371Y1243093D1*
X2198583Y1240101D1*
X2207214Y1235703D1*
X2215050Y1230009D1*
X2221899Y1223160D1*
X2227593Y1215324D1*
X2231991Y1206693D1*
X2234983Y1197482D1*
X2236499Y1187913D1*
Y1178228D1*
X2006499Y1282559D2*
X2004983Y1272991D1*
X2001991Y1263780D1*
X1997593Y1255148D1*
X1991899Y1247312D1*
X1985050Y1240463D1*
X1977214Y1234769D1*
X1968583Y1230371D1*
X1959371Y1227379D1*
X1949803Y1225864D1*
X1940118D1*
X1930550Y1227379D1*
X1921339Y1230371D1*
X1912707Y1234769D1*
X1904871Y1240463D1*
X1898022Y1247312D1*
X1892328Y1255148D1*
X1887930Y1263780D1*
X1884938Y1272991D1*
X1883423Y1282559D1*
Y1292244D1*
X1884938Y1301812D1*
X1887930Y1311024D1*
X1892328Y1319655D1*
X1898022Y1327491D1*
X1904871Y1334340D1*
X1912707Y1340034D1*
X1921339Y1344432D1*
X1930550Y1347424D1*
X1940118Y1348940D1*
X1949803D1*
X1959371Y1347424D1*
X1968583Y1344432D1*
X1977214Y1340034D1*
X1985050Y1334340D1*
X1991899Y1327491D1*
X1997593Y1319655D1*
X2001991Y1311024D1*
X2004983Y1301812D1*
X2006499Y1292244D1*
Y1282559D1*
X1665371Y1165075D2*
X1773736D1*
Y1047524D1*
X1756835D1*
X1762510Y1040846D1*
X1767331Y1032983D1*
X1770860Y1024462D1*
X1773013Y1015493D1*
X1773736Y1006299D1*
X1773013Y997105D1*
X1770860Y988136D1*
X1767331Y979615D1*
X1762510Y971752D1*
X1756521Y964739D1*
X1749508Y958749D1*
X1741644Y953929D1*
X1739860Y953108D1*
X1746131Y949202D1*
X1752459Y943798D1*
X1757864Y937470D1*
X1762213Y930375D1*
X1765396Y922686D1*
X1767339Y914596D1*
X1767992Y906299D1*
X1767339Y898003D1*
X1765396Y889912D1*
X1762213Y882223D1*
X1757864Y875129D1*
X1752459Y868801D1*
X1746131Y863396D1*
X1739037Y859047D1*
X1731348Y855864D1*
X1723257Y853921D1*
X1714961Y853268D1*
X1706664Y853921D1*
X1698573Y855864D1*
X1690885Y859047D1*
X1683790Y863396D1*
X1677462Y868801D1*
X1672058Y875129D1*
X1667709Y882223D1*
X1664525Y889912D1*
X1662583Y898003D1*
X1661929Y906299D1*
X1662583Y914596D1*
X1664525Y922686D1*
X1667709Y930375D1*
X1672058Y937470D1*
X1677462Y943798D1*
X1683790Y949202D1*
X1690020Y953066D1*
X1684251Y956185D1*
X1676789Y961606D1*
X1670268Y968127D1*
X1664846Y975589D1*
X1660659Y983807D1*
X1657808Y992579D1*
X1656366Y1001688D1*
Y1010911D1*
X1657808Y1020020D1*
X1660659Y1028791D1*
X1664846Y1037009D1*
X1670268Y1044471D1*
X1673094Y1047529D1*
X1656185Y1047524D1*
Y1165075D1*
X1665371D1*
X2070807Y1001904D2*
X2069433Y993222D1*
X2066717Y984861D1*
X2062726Y977029D1*
X2057558Y969917D1*
X2051343Y963702D1*
X2044231Y958534D1*
X2036399Y954543D1*
X2028038Y951827D1*
X2019356Y950453D1*
X2010566D1*
X2001883Y951827D1*
X1993522Y954543D1*
X1985690Y958534D1*
X1978579Y963702D1*
X1972364Y969917D1*
X1967196Y977029D1*
X1963205Y984861D1*
X1960488Y993222D1*
X1959114Y1001904D1*
Y1010694D1*
X1960488Y1019377D1*
X1963205Y1027738D1*
X1967196Y1035570D1*
X1972364Y1042681D1*
X1978579Y1048896D1*
X1985690Y1054064D1*
X1993226Y1057917D1*
X1987252Y1061083D1*
X1980520Y1065974D1*
X1974635Y1071858D1*
X1969744Y1078591D1*
X1965966Y1086005D1*
X1963395Y1093919D1*
X1962093Y1102138D1*
Y1110461D1*
X1963395Y1118680D1*
X1965966Y1126593D1*
X1969744Y1134008D1*
X1974635Y1140740D1*
X1980520Y1146625D1*
X1987252Y1151516D1*
X1994667Y1155294D1*
X2002580Y1157865D1*
X2010799Y1159167D1*
X2019122D1*
X2027341Y1157865D1*
X2035255Y1155294D1*
X2042669Y1151516D1*
X2049402Y1146625D1*
X2055286Y1140740D1*
X2060177Y1134008D1*
X2063955Y1126593D1*
X2066526Y1118680D1*
X2067828Y1110461D1*
Y1102138D1*
X2066526Y1093919D1*
X2063955Y1086005D1*
X2060177Y1078591D1*
X2055286Y1071858D1*
X2049402Y1065974D1*
X2042669Y1061083D1*
X2036659Y1057951D1*
X2044231Y1054064D1*
X2051343Y1048896D1*
X2057558Y1042681D1*
X2062726Y1035570D1*
X2066717Y1027738D1*
X2069433Y1019377D1*
X2070807Y1010694D1*
Y1001904D1*
D19*
X1354961Y1098425D3*
X1154961D3*
X514961Y984252D3*
Y1184252D3*
X2614961Y838583D3*
X2814961D3*
X1534961Y956693D3*
Y1156693D3*
D20*
X2054961Y1641732D3*
D21*
X2490000D3*
D22*
X2464961Y1023622D3*
D23*
Y653543D3*
D22*
X2344961D3*
D23*
Y1023622D3*
D24*
X514961Y1724409D3*
D25*
Y1624409D3*
Y1524409D3*
Y1424409D3*
Y1324409D3*
D24*
X1284961Y519685D3*
D25*
Y619685D3*
Y719685D3*
Y819685D3*
Y919685D3*
D24*
X1354961Y1637795D3*
D25*
X1254961D3*
X1354961Y1737795D3*
X1254961D3*
X1354961Y1837795D3*
X1254961D3*
D15*
X2494961Y1909449D3*
X1764961Y1913386D3*
X2964961Y866142D3*
Y732283D3*
D27*
X2804961Y1413386D3*
D28*
Y1313386D3*
Y1213386D3*
D57*
X2574961Y1361024D3*
D29*
Y1311024D3*
Y1261024D3*
D19*
X1114961Y1846457D3*
Y1438976D3*
X2964961Y1019685D3*
X2557480D3*
X2804961Y1751969D3*
X2397480D3*
X1864961Y1433071D3*
X2272441D3*
X2421220Y1115157D3*
Y1522638D3*
X1764961Y669291D3*
X2172441D3*
X2174961Y775591D3*
Y1183071D3*
X1944961Y1287402D3*
X1537480D3*
X2174961Y531496D3*
X1767480D3*
D30*
X674961Y1826772D3*
D31*
Y1726772D3*
Y1626772D3*
Y1526772D3*
Y1426772D3*
Y1326772D3*
Y1226772D3*
Y1126772D3*
Y1026772D3*
Y926772D3*
Y826772D3*
Y726772D3*
Y626772D3*
Y526772D3*
X974961D3*
Y626772D3*
Y726772D3*
Y826772D3*
Y926772D3*
Y1026772D3*
Y1126772D3*
Y1226772D3*
Y1326772D3*
Y1426772D3*
Y1526772D3*
Y1626772D3*
Y1726772D3*
Y1826772D3*
D27*
X1864961Y1645669D3*
D28*
X1764961D3*
X1664961D3*
D22*
X1714961Y1106299D3*
D23*
Y1006299D3*
Y906299D3*
Y806299D3*
X2014961D3*
Y906299D3*
Y1006299D3*
Y1106299D3*
G04 Bottom Clear*
%LPC*%
D33*
X1251024Y1326772D3*
D13*
X1354961Y1098425D3*
X1154961D3*
X514961Y984252D3*
Y1184252D3*
X2614961Y838583D3*
X2814961D3*
X1534961Y956693D3*
Y1156693D3*
D34*
X2054961Y1641732D3*
X2490000D3*
D35*
X2464961Y1023622D3*
Y653543D3*
X2344961D3*
Y1023622D3*
D36*
X514961Y1724409D3*
Y1624409D3*
Y1524409D3*
Y1424409D3*
Y1324409D3*
X1284961Y519685D3*
Y619685D3*
Y719685D3*
Y819685D3*
Y919685D3*
X1354961Y1637795D3*
X1254961D3*
X1354961Y1737795D3*
X1254961D3*
X1354961Y1837795D3*
X1254961D3*
X2494961Y1909449D3*
X1764961Y1913386D3*
X2964961Y866142D3*
Y732283D3*
X2804961Y1413386D3*
Y1313386D3*
Y1213386D3*
D37*
X2574961Y1361024D3*
Y1311024D3*
Y1261024D3*
D13*
X1114961Y1846457D3*
Y1438976D3*
X2964961Y1019685D3*
X2557480D3*
X2804961Y1751969D3*
X2397480D3*
X1864961Y1433071D3*
X2272441D3*
X2421220Y1115157D3*
Y1522638D3*
X1764961Y669291D3*
X2172441D3*
X2174961Y775591D3*
Y1183071D3*
X1944961Y1287402D3*
X1537480D3*
X2174961Y531496D3*
X1767480D3*
D35*
X674961Y1826772D3*
Y1726772D3*
Y1626772D3*
Y1526772D3*
Y1426772D3*
Y1326772D3*
Y1226772D3*
Y1126772D3*
Y1026772D3*
Y926772D3*
Y826772D3*
Y726772D3*
Y626772D3*
Y526772D3*
X974961D3*
Y626772D3*
Y726772D3*
Y826772D3*
Y926772D3*
Y1026772D3*
Y1126772D3*
Y1226772D3*
Y1326772D3*
Y1426772D3*
Y1526772D3*
Y1626772D3*
Y1726772D3*
Y1826772D3*
D36*
X1864961Y1645669D3*
X1764961D3*
X1664961D3*
D35*
X1714961Y1106299D3*
Y1006299D3*
Y906299D3*
Y806299D3*
X2014961D3*
Y906299D3*
Y1006299D3*
Y1106299D3*
M02*
