M48
INCH
T01C0.0191
T02C0.0276
T03C0.0354
T04C0.0394
T05C0.0433
T06C0.0472
%
T01
X+012510Y+013268
T02
X+025750Y+013610
X+025750Y+013110
X+025750Y+012610
T03
X+024650Y+010236
X+023450Y+010236
X+020150Y+010063
X+020150Y+009063
X+020150Y+008063
X+017150Y+008063
X+017150Y+009063
X+017150Y+010063
X+017150Y+011063
X+020150Y+011063
X+023450Y+006535
X+024650Y+006535
X+009750Y+006268
X+009750Y+005268
X+009750Y+007268
X+009750Y+008268
X+009750Y+009268
X+009750Y+010268
X+009750Y+011268
X+009750Y+012268
X+009750Y+013268
X+009750Y+014268
X+009750Y+015268
X+009750Y+016268
X+009750Y+017268
X+009750Y+018268
X+006750Y+018268
X+006750Y+017268
X+006750Y+016268
X+006750Y+015268
X+006750Y+014268
X+006750Y+013268
X+006750Y+012268
X+006750Y+011268
X+006750Y+010268
X+006750Y+009268
X+006750Y+008268
X+006750Y+007268
X+006750Y+006268
X+006750Y+005268
T04
X+013550Y+010984
X+015350Y+011567
X+015375Y+012874
X+015350Y+009567
X+017650Y+006693
X+017675Y+005315
X+021750Y+005315
X+021724Y+006693
X+021750Y+007756
X+021750Y+011831
X+019450Y+012874
X+018650Y+014331
X+022724Y+014331
X+024212Y+015226
X+023975Y+017520
X+028050Y+017520
X+024212Y+011152
X+025575Y+010197
X+026150Y+008386
X+028150Y+008386
X+029650Y+010197
X+011550Y+010984
X+011150Y+014390
X+011150Y+018465
X+005150Y+011843
X+005150Y+009843
T05
X+005150Y+017244
X+005150Y+016244
X+005150Y+015244
X+005150Y+014244
X+005150Y+013244
X+012550Y+016378
X+013550Y+016378
X+013550Y+017378
X+012550Y+017378
X+012550Y+018378
X+013550Y+018378
X+016650Y+016457
X+017650Y+016457
X+018650Y+016457
X+017650Y+019134
X+024950Y+019094
X+028050Y+014134
X+028050Y+013134
X+028050Y+012134
X+029650Y+008661
X+029650Y+007323
X+012850Y+007197
X+012850Y+008197
X+012850Y+009197
X+012850Y+006197
X+012850Y+005197
T06
X+020550Y+016417
X+024900Y+016417
T00
M30
