G04 DipTrace 3.3.1.1*
G04 Top.Cu.gbr*
%MOIN*%
G04 #@! TF.FileFunction,Copper,L1,Top*
G04 #@! TF.Part,Single*
%AMOUTLINE0*
4,1,8,
-0.029528,0.019685,
-0.03937,0.009843,
-0.03937,-0.009843,
-0.029528,-0.019685,
0.029528,-0.019685,
0.03937,-0.009843,
0.03937,0.009843,
0.029528,0.019685,
-0.029528,0.019685,
0*%
%ADD13C,0.03937*%
%ADD33C,0.019134*%
%ADD34C,0.047244*%
%ADD35C,0.035433*%
%ADD36C,0.043307*%
%ADD37C,0.027559*%
G04 #@! TA.AperFunction,Conductor*
%ADD14C,0.11811*%
G04 #@! TA.AperFunction,ComponentPad*
%ADD15C,0.07874*%
G04 #@! TA.AperFunction,Conductor*
%ADD16C,0.01*%
%ADD17C,0.015748*%
G04 #@! TA.AperFunction,CopperBalancing*
%ADD18C,0.025*%
G04 #@! TA.AperFunction,ComponentPad*
%ADD19C,0.064961*%
%ADD20R,0.070866X0.070866*%
%ADD21C,0.070866*%
%ADD22R,0.059055X0.059055*%
%ADD23C,0.059055*%
%ADD24R,0.066929X0.066929*%
%ADD25C,0.066929*%
%ADD27R,0.074803X0.074803*%
%ADD28C,0.074803*%
%ADD29O,0.07874X0.03937*%
%ADD30R,0.062992X0.062992*%
%ADD31C,0.062992*%
G04 #@! TA.AperFunction,ViaPad*
%ADD32C,0.04*%
G04 #@! TA.AperFunction,ComponentPad*
%ADD57OUTLINE0*%
%FSLAX26Y26*%
G04*
G70*
G90*
G75*
G01*
G04 Top*
%LPD*%
X2490000Y1641732D2*
D13*
Y1904488D1*
X2494961Y1909449D1*
D14*
X2839843D1*
X2934961Y1814331D1*
Y1366457D1*
D15*
X2881890Y1313386D1*
X2804961D1*
X2054961Y1641732D2*
D13*
X1868898D1*
X1864961Y1645669D1*
X2397480Y1751969D2*
X2165197D1*
X2054961Y1641732D1*
X1664961Y1645669D2*
Y1610630D1*
X1759843Y1515748D1*
X1939370D1*
X2244961Y1210157D1*
Y1152047D1*
X2199213Y1106299D1*
X2014961D1*
X674961Y1226772D2*
D16*
X557480D1*
X514961Y1184252D1*
X674961Y1226772D2*
X774961D1*
X974961Y1026772D1*
X1114961Y1438976D2*
X1112047D1*
X1051024Y1377953D1*
X926142D1*
X774961Y1226772D1*
X1254961Y1637795D2*
Y1578976D1*
X1114961Y1438976D1*
X1254961Y1637795D2*
X1250079D1*
X1204961Y1682913D1*
Y1761339D1*
X1231024Y1787402D1*
X1523228D1*
X1664961Y1645669D1*
X1284961Y819685D2*
D17*
X1167874D1*
X974961Y626772D1*
X2014961Y906299D2*
D16*
Y806299D1*
X1714961D2*
X2014961D1*
X2174961Y531496D2*
X2165197D1*
X2014961Y681732D1*
Y806299D1*
X2464961Y653543D2*
X2344961D1*
X2174961Y531496D2*
X2222913D1*
X2344961Y653543D1*
X1534961Y956693D2*
Y802362D1*
X1702087Y635236D1*
Y511378D1*
X1751772Y461693D1*
X2105157D1*
X2174961Y531496D1*
X2964961Y732283D2*
D14*
X2614961D1*
X2543701D1*
X2464961Y653543D1*
X2614961Y838583D2*
D16*
Y732283D1*
Y838583D2*
Y1115157D1*
Y1221024D1*
X2574961Y1261024D1*
X2421220Y1115157D2*
X2614961D1*
X1764961Y1913386D2*
D13*
Y1645669D1*
D16*
Y1606614D1*
X1808583Y1562992D1*
X1973386D1*
X2421220Y1115157D1*
X1284961Y519685D2*
X1586535D1*
X1702087Y635236D1*
X1354961Y1098425D2*
X1393228D1*
X1534961Y956693D1*
X514961Y1724409D2*
X472205D1*
X434961Y1687165D1*
Y1064252D1*
X514961Y984252D1*
Y595197D1*
X673150Y437008D1*
X1202283D1*
X1284961Y519685D1*
X1537480Y1287402D2*
D17*
Y1159213D1*
X1534961Y1156693D1*
X974961Y1326772D2*
X1251024D1*
X1284961Y919685D2*
X1167874D1*
X974961Y726772D1*
X1254961Y1737795D2*
Y1715354D1*
X1304961Y1665354D1*
Y1213228D1*
X1274961Y1183228D1*
Y929685D1*
X1284961Y919685D1*
X2804961Y1751969D2*
D13*
Y1413386D1*
D16*
X2627323D1*
X2574961Y1361024D1*
X2421220Y1522638D2*
X2362008D1*
X2272441Y1433071D1*
X2421220Y1522638D2*
Y1395079D1*
X2505276Y1311024D1*
X2574961D1*
X2814961Y838583D2*
X2937402D1*
X2964961Y866142D1*
D14*
Y1019685D1*
Y1053386D1*
D15*
X2804961Y1213386D1*
X1764961Y669291D2*
D17*
X1767480D1*
Y531496D1*
X1714961Y1006299D2*
X1688504D1*
X1652087Y969882D1*
Y782165D1*
X1764961Y669291D1*
X1944961Y1287402D2*
X1843071D1*
X1714961Y1159291D1*
Y1106299D1*
X1944961Y1287402D2*
X2070630D1*
X2174961Y1183071D1*
X974961Y526772D2*
D16*
Y539843D1*
X1206772Y771654D1*
X1311654D1*
X1344961Y804961D1*
Y1012677D1*
X1304961Y1052677D1*
Y1163071D1*
X1574961Y1433071D1*
X1864961D1*
X674961Y1826772D2*
D17*
X852283D1*
X927087Y1901575D1*
X1059843D1*
X1114961Y1846457D1*
X1354961Y1837795D2*
Y1841575D1*
X1302835Y1893701D1*
X1162205D1*
X1114961Y1846457D1*
X2464961Y1023622D2*
D16*
X2344961D1*
X1714961Y906299D2*
X1826142D1*
X1976024Y1056181D1*
X2312402D1*
X2344961Y1023622D1*
X2464961D2*
X2553543D1*
X2557480Y1019685D1*
X674961Y1526772D2*
D17*
X517323D1*
X514961Y1524409D1*
X674961Y1426772D2*
X517323D1*
X514961Y1424409D1*
X674961Y1326772D2*
X517323D1*
X514961Y1324409D1*
X2172441Y669291D2*
X2174961D1*
Y775591D1*
X1154961Y1098425D2*
X1003307D1*
X974961Y1126772D1*
D32*
X1251024Y1326772D3*
X419979Y1923261D2*
D18*
X893781D1*
X1093166D2*
X1137255D1*
X1327777D2*
X2411072D1*
X2945292D2*
X3040194D1*
X419979Y1898392D2*
X868914D1*
X1373601D2*
X2410642D1*
X2970160D2*
X3040373D1*
X419979Y1873524D2*
X611732D1*
X738200D2*
X844046D1*
X1408983D2*
X2418142D1*
X2995028D2*
X3040517D1*
X419979Y1848655D2*
X611732D1*
X1031158D2*
X1050775D1*
X1179144D2*
X1290696D1*
X1419210D2*
X2436586D1*
X3012539D2*
X3040696D1*
X419979Y1823786D2*
X611732D1*
X904307D2*
X914558D1*
X1035356D2*
X1055045D1*
X1174874D2*
X1291342D1*
X1418600D2*
X2444301D1*
X2535674D2*
X2806265D1*
X3019465D2*
X3040840D1*
X419979Y1798917D2*
X611732D1*
X879332D2*
X921592D1*
X1028323D2*
X1073095D1*
X1156824D2*
X1199730D1*
X1554529D2*
X2364495D1*
X2430462D2*
X2444301D1*
X2535674D2*
X2771960D1*
X3020003D2*
X3040983D1*
X419979Y1774049D2*
X611732D1*
X738200D2*
X938888D1*
X1011027D2*
X1176943D1*
X1579397D2*
X2123712D1*
X2535674D2*
X2751003D1*
X3020003D2*
X3041163D1*
X419979Y1749180D2*
X618980D1*
X730951D2*
X918972D1*
X1030943D2*
X1173965D1*
X1419138D2*
X1518633D1*
X1604264D2*
X2098844D1*
X2535674D2*
X2746554D1*
X3020003D2*
X3041306D1*
X419979Y1724311D2*
X614531D1*
X735401D2*
X914522D1*
X1035392D2*
X1173965D1*
X1418707D2*
X1543500D1*
X1629132D2*
X2073976D1*
X2535674D2*
X2753802D1*
X3020003D2*
X3041486D1*
X419979Y1699442D2*
X621313D1*
X728618D2*
X921304D1*
X1028610D2*
X1173965D1*
X1420178D2*
X1568368D1*
X1696056D2*
X1801544D1*
X1928370D2*
X1993524D1*
X2176258D2*
X2375619D1*
X2419338D2*
X2444301D1*
X2535674D2*
X2759257D1*
X3020003D2*
X3041629D1*
X419979Y1674573D2*
X485455D1*
X544461D2*
X639649D1*
X710282D2*
X939641D1*
X1010273D2*
X1175221D1*
X1420178D2*
X1593236D1*
X1721067D2*
X1801544D1*
X2151391D2*
X2438560D1*
X2541452D2*
X2759257D1*
X3020003D2*
X3041809D1*
X419979Y1649705D2*
X461413D1*
X568503D2*
X619195D1*
X730736D2*
X919187D1*
X1030727D2*
X1195352D1*
X1420178D2*
X1601704D1*
X1728244D2*
X1801544D1*
X2126523D2*
X2429122D1*
X2550889D2*
X2759257D1*
X3020003D2*
X3041952D1*
X419979Y1624836D2*
X455492D1*
X574424D2*
X614495D1*
X735401D2*
X914522D1*
X1035428D2*
X1197003D1*
X1420178D2*
X1605221D1*
X1724692D2*
X1801544D1*
X2116403D2*
X2431024D1*
X2548951D2*
X2759257D1*
X3020003D2*
X3042132D1*
X419979Y1599967D2*
X461018D1*
X568934D2*
X621026D1*
X728870D2*
X921053D1*
X1028897D2*
X1209849D1*
X1420178D2*
X1620615D1*
X1739189D2*
X1801544D1*
X2116403D2*
X2445916D1*
X2534095D2*
X2759257D1*
X3020003D2*
X3042275D1*
X419979Y1575098D2*
X475551D1*
X554401D2*
X635666D1*
X714265D2*
X940395D1*
X1009520D2*
X1208270D1*
X1420178D2*
X1636907D1*
X1764057D2*
X2399159D1*
X2443273D2*
X2759257D1*
X3020003D2*
X3042455D1*
X419979Y1550230D2*
X455312D1*
X733499D2*
X919438D1*
X1030476D2*
X1183403D1*
X1344571D2*
X1661775D1*
X1967879D2*
X2352366D1*
X2472446D2*
X2759257D1*
X3020003D2*
X3042598D1*
X419979Y1525361D2*
X449750D1*
X738200D2*
X914486D1*
X1035428D2*
X1158535D1*
X1244167D2*
X1265326D1*
X1344571D2*
X1686642D1*
X1993321D2*
X2321936D1*
X2479623D2*
X2759257D1*
X3020003D2*
X3042742D1*
X419979Y1500492D2*
X454487D1*
X732243D2*
X920766D1*
X1029149D2*
X1133667D1*
X1219299D2*
X1265326D1*
X1344571D2*
X1711510D1*
X2018188D2*
X2297068D1*
X2475138D2*
X2759257D1*
X3020003D2*
X3042921D1*
X419979Y1475623D2*
X473039D1*
X556877D2*
X636348D1*
X713547D2*
X941220D1*
X1008695D2*
X1070152D1*
X1194431D2*
X1265326D1*
X1344571D2*
X1741366D1*
X2043056D2*
X2233553D1*
X2357796D2*
X2388322D1*
X2454110D2*
X2759257D1*
X3020003D2*
X3043065D1*
X419979Y1450755D2*
X455564D1*
X733283D2*
X919654D1*
X1030261D2*
X1057736D1*
X1172183D2*
X1265326D1*
X1344571D2*
X1549816D1*
X1920583D2*
X1940774D1*
X2067960D2*
X2216831D1*
X2332929D2*
X2390224D1*
X2452208D2*
X2741566D1*
X3020003D2*
X3043244D1*
X419979Y1425886D2*
X449750D1*
X738200D2*
X914486D1*
X1035428D2*
X1056157D1*
X1171896D2*
X1265326D1*
X1344571D2*
X1524948D1*
X1922988D2*
X1965642D1*
X2092828D2*
X2214427D1*
X2330453D2*
X2390224D1*
X2452208D2*
X2597024D1*
X3020003D2*
X3043388D1*
X419979Y1401017D2*
X454272D1*
X732458D2*
X906879D1*
X1158619D2*
X1265326D1*
X1344571D2*
X1500080D1*
X1585712D2*
X1816543D1*
X1913371D2*
X1990510D1*
X2117695D2*
X2224044D1*
X2320836D2*
X2390224D1*
X2458093D2*
X2531105D1*
X3020003D2*
X3043567D1*
X419979Y1376148D2*
X472429D1*
X557523D2*
X637066D1*
X712829D2*
X881509D1*
X1092018D2*
X1265326D1*
X1344571D2*
X1475213D1*
X1560845D2*
X2015377D1*
X2142563D2*
X2397400D1*
X2482960D2*
X2510184D1*
X2639738D2*
X2741566D1*
X3020003D2*
X3043711D1*
X419979Y1351280D2*
X455779D1*
X733032D2*
X856641D1*
X1344571D2*
X1450345D1*
X1535977D2*
X2040245D1*
X2167431D2*
X2422196D1*
X2640348D2*
X2752295D1*
X3018604D2*
X3043890D1*
X419979Y1326411D2*
X449786D1*
X738200D2*
X831773D1*
X1344571D2*
X1425477D1*
X1587829D2*
X1894627D1*
X1995294D2*
X2065113D1*
X2192299D2*
X2447064D1*
X2637514D2*
X2740956D1*
X3009669D2*
X3044033D1*
X419979Y1301542D2*
X454056D1*
X732709D2*
X806906D1*
X892537D2*
X917214D1*
X1344571D2*
X1400610D1*
X1600066D2*
X1802225D1*
X2217166D2*
X2471932D1*
X2639272D2*
X2740704D1*
X2988461D2*
X3044213D1*
X419979Y1276673D2*
X471783D1*
X558133D2*
X638106D1*
X711825D2*
X782038D1*
X867670D2*
X938098D1*
X1011816D2*
X1265326D1*
X1344571D2*
X1375742D1*
X1461374D2*
X1474208D1*
X1600784D2*
X1777358D1*
X2242034D2*
X2526584D1*
X2623339D2*
X2751434D1*
X2936608D2*
X3044356D1*
X419979Y1251804D2*
X541363D1*
X842802D2*
X920156D1*
X1029759D2*
X1265326D1*
X1436506D2*
X1484543D1*
X1590413D2*
X1752490D1*
X2266902D2*
X2752690D1*
X2897064D2*
X3044536D1*
X419979Y1226936D2*
X476233D1*
X817934D2*
X914486D1*
X1035464D2*
X1263675D1*
X1411638D2*
X1497856D1*
X1577100D2*
X1727622D1*
X1837619D2*
X1930045D1*
X1959877D2*
X2076093D1*
X2287248D2*
X2741063D1*
X2882818D2*
X3044679D1*
X419979Y1202067D2*
X459403D1*
X842479D2*
X920013D1*
X1029938D2*
X1240458D1*
X1386770D2*
X1490607D1*
X1579325D2*
X1702754D1*
X1812751D2*
X2100961D1*
X2290657D2*
X2740597D1*
X2907686D2*
X3044823D1*
X419979Y1177198D2*
X456927D1*
X572989D2*
X643812D1*
X706083D2*
X781715D1*
X867347D2*
X938601D1*
X1011314D2*
X1235327D1*
X1361903D2*
X1474244D1*
X1595688D2*
X1679932D1*
X1787884D2*
X2111009D1*
X2290657D2*
X2751039D1*
X2932553D2*
X3045002D1*
X419979Y1152329D2*
X466472D1*
X563444D2*
X620416D1*
X729516D2*
X806583D1*
X892214D2*
X917357D1*
X1032558D2*
X1122399D1*
X1187541D2*
X1235327D1*
X1337035D2*
X1470871D1*
X1599025D2*
X1653701D1*
X1776221D2*
X1986132D1*
X2043810D2*
X2118939D1*
X2290657D2*
X2774615D1*
X2957421D2*
X3045146D1*
X419979Y1127461D2*
X614459D1*
X735436D2*
X831450D1*
X1211943D2*
X1235327D1*
X1335958D2*
X1478083D1*
X1591813D2*
X1653701D1*
X1776221D2*
X1963848D1*
X2282978D2*
X2799483D1*
X3003927D2*
X3045325D1*
X419979Y1102592D2*
X619770D1*
X730161D2*
X856318D1*
X1219048D2*
X1235327D1*
X1335958D2*
X1502736D1*
X1567196D2*
X1653701D1*
X1776221D2*
X1959542D1*
X2259079D2*
X2824350D1*
X3033747D2*
X3045469D1*
X419979Y1077723D2*
X641515D1*
X708380D2*
X881186D1*
X1215603D2*
X1235327D1*
X1335958D2*
X1653701D1*
X1776221D2*
X1954841D1*
X2333575D2*
X2849218D1*
X419979Y1052854D2*
X620667D1*
X729264D2*
X906054D1*
X1025883D2*
X1110809D1*
X1199096D2*
X1235327D1*
X1347585D2*
X1653701D1*
X1776221D2*
X1929901D1*
X2391707D2*
X2409422D1*
X2605074D2*
X2874086D1*
X419979Y1027986D2*
X614495D1*
X735436D2*
X917465D1*
X1032450D2*
X1235327D1*
X1371520D2*
X1655208D1*
X1772095D2*
X1905034D1*
X2615337D2*
X2879899D1*
X419979Y1003117D2*
X619518D1*
X730413D2*
X922812D1*
X1027103D2*
X1235327D1*
X1375969D2*
X1630340D1*
X1776150D2*
X1880166D1*
X2073378D2*
X2293552D1*
X2613471D2*
X2879899D1*
X419979Y978248D2*
X640726D1*
X709205D2*
X940215D1*
X1009699D2*
X1235327D1*
X1375969D2*
X1613403D1*
X1769116D2*
X1855262D1*
X1940894D2*
X1963955D1*
X2065950D2*
X2315010D1*
X2374913D2*
X2409422D1*
X2597610D2*
X2879899D1*
X419979Y953379D2*
X620954D1*
X728977D2*
X917860D1*
X1032055D2*
X1149779D1*
X1375969D2*
X1612470D1*
X1743029D2*
X1830394D1*
X1916026D2*
X1994098D1*
X2035843D2*
X2879899D1*
X419979Y928510D2*
X614495D1*
X735436D2*
X911759D1*
X1038191D2*
X1121718D1*
X1375969D2*
X1612470D1*
X1891158D2*
X2879899D1*
X419979Y903642D2*
X619267D1*
X730628D2*
X916281D1*
X1033634D2*
X1096850D1*
X1375969D2*
X1612470D1*
X1866291D2*
X2879899D1*
X419979Y878773D2*
X639937D1*
X709995D2*
X935228D1*
X1014687D2*
X1071946D1*
X1181943D2*
X1234932D1*
X1375969D2*
X1612470D1*
X1836040D2*
X2773503D1*
X2856443D2*
X2879899D1*
X419979Y853904D2*
X621205D1*
X728726D2*
X918111D1*
X1031804D2*
X1047079D1*
X1375969D2*
X1612470D1*
X1691714D2*
X1704262D1*
X1725661D2*
X2758611D1*
X419979Y829035D2*
X614531D1*
X735401D2*
X911759D1*
X1375969D2*
X1612470D1*
X1691714D2*
X2141582D1*
X2208339D2*
X2757283D1*
X419979Y804167D2*
X619052D1*
X730879D2*
X916065D1*
X1375969D2*
X1612470D1*
X1691714D2*
X2117755D1*
X2232166D2*
X2768299D1*
X2861610D2*
X2907925D1*
X3022013D2*
X3047407D1*
X419979Y779298D2*
X639147D1*
X710748D2*
X934582D1*
X1362118D2*
X1612577D1*
X1709943D2*
X2110829D1*
X2239092D2*
X3047550D1*
X419979Y754429D2*
X621492D1*
X728439D2*
X918362D1*
X1339654D2*
X1624814D1*
X1734811D2*
X2114490D1*
X2235431D2*
X3047730D1*
X419979Y729560D2*
X614531D1*
X735365D2*
X911795D1*
X1207493D2*
X1220543D1*
X1349379D2*
X1649682D1*
X1780815D2*
X2131319D1*
X2218602D2*
X3047873D1*
X419979Y704692D2*
X618837D1*
X731094D2*
X915886D1*
X1182625D2*
X1221583D1*
X1348338D2*
X1674549D1*
X1818026D2*
X2119370D1*
X2225527D2*
X3048053D1*
X419979Y679823D2*
X638429D1*
X711502D2*
X933900D1*
X1157757D2*
X1234035D1*
X1335887D2*
X1699417D1*
X1828289D2*
X2109107D1*
X2235754D2*
X3048196D1*
X419979Y654954D2*
X621779D1*
X728152D2*
X918649D1*
X1132890D2*
X1237731D1*
X1332190D2*
X1702431D1*
X1827500D2*
X2109896D1*
X2234965D2*
X3048340D1*
X419979Y630085D2*
X614566D1*
X735365D2*
X911795D1*
X1108022D2*
X1226464D1*
X1343458D2*
X1714776D1*
X1815156D2*
X2122276D1*
X2222621D2*
X3048519D1*
X419979Y605217D2*
X618621D1*
X731310D2*
X915671D1*
X1083154D2*
X1227361D1*
X1342561D2*
X1727873D1*
X1807118D2*
X3048663D1*
X419979Y580348D2*
X637712D1*
X712219D2*
X933290D1*
X1058286D2*
X1241248D1*
X1328674D2*
X1727263D1*
X1807728D2*
X3048842D1*
X419979Y555479D2*
X622066D1*
X727829D2*
X925539D1*
X1033419D2*
X1708101D1*
X1826854D2*
X3048986D1*
X419979Y530610D2*
X614602D1*
X735329D2*
X917608D1*
X1032342D2*
X1703257D1*
X1831698D2*
X3049165D1*
X419979Y505741D2*
X618406D1*
X731489D2*
X921627D1*
X1028287D2*
X1708891D1*
X1826065D2*
X3049308D1*
X419979Y480873D2*
X637030D1*
X712901D2*
X942153D1*
X1007762D2*
X1729668D1*
X1805288D2*
X3049488D1*
X419979Y456004D2*
X3049631D1*
X419979Y431135D2*
X3049811D1*
X1216499Y1093582D2*
X1214983Y1084015D1*
X1211990Y1074803D1*
X1207593Y1066172D1*
X1201899Y1058336D1*
X1195050Y1051487D1*
X1187214Y1045793D1*
X1178583Y1041396D1*
X1169371Y1038402D1*
X1159804Y1036887D1*
X1150117D1*
X1140550Y1038402D1*
X1131338Y1041396D1*
X1122708Y1045793D1*
X1114871Y1051487D1*
X1108022Y1058336D1*
X1105689Y1061295D1*
X1017775Y1061303D1*
X1021856Y1055509D1*
X1025774Y1047819D1*
X1028441Y1039611D1*
X1029791Y1031087D1*
Y1022456D1*
X1028441Y1013932D1*
X1025774Y1005724D1*
X1021856Y998034D1*
X1016783Y991052D1*
X1010680Y984949D1*
X1004049Y980111D1*
X1010665Y975915D1*
X1017913Y969724D1*
X1024104Y962476D1*
X1029084Y954349D1*
X1032732Y945543D1*
X1034957Y936274D1*
X1035705Y926772D1*
X1034957Y917269D1*
X1032732Y908001D1*
X1029084Y899194D1*
X1024104Y891067D1*
X1017913Y883819D1*
X1010665Y877629D1*
X1009410Y876790D1*
X1014411Y872962D1*
X1021151Y866222D1*
X1026753Y858510D1*
X1031081Y850017D1*
X1034026Y840952D1*
X1034459Y838778D1*
X1143765Y947913D1*
X1148478Y951337D1*
X1153668Y953981D1*
X1159208Y955782D1*
X1164961Y956693D1*
X1213806Y956807D1*
X1234439D1*
X1237835Y961021D1*
X1237953Y1186141D1*
X1238864Y1191894D1*
X1240664Y1197434D1*
X1243309Y1202625D1*
X1246733Y1207337D1*
X1267818Y1228584D1*
X1267838Y1280511D1*
X1262520Y1278884D1*
X1254888Y1277675D1*
X1247160D1*
X1239527Y1278884D1*
X1232177Y1281272D1*
X1225292Y1284781D1*
X1218696Y1289641D1*
X1023051Y1289649D1*
X1017913Y1283819D1*
X1010665Y1277629D1*
X1006932Y1275134D1*
X1012621Y1270866D1*
X1019055Y1264432D1*
X1024404Y1257070D1*
X1028535Y1248963D1*
X1031347Y1240309D1*
X1032770Y1231321D1*
Y1222222D1*
X1031347Y1213235D1*
X1028535Y1204581D1*
X1024404Y1196473D1*
X1019055Y1189111D1*
X1012621Y1182677D1*
X1006901Y1178425D1*
X1014411Y1172962D1*
X1021151Y1166222D1*
X1026753Y1158510D1*
X1031081Y1150017D1*
X1034026Y1140952D1*
X1035042Y1135553D1*
X1105613Y1135547D1*
X1111312Y1142074D1*
X1118678Y1148364D1*
X1126937Y1153426D1*
X1135886Y1157132D1*
X1145304Y1159394D1*
X1154961Y1160154D1*
X1164617Y1159394D1*
X1174036Y1157132D1*
X1182985Y1153426D1*
X1191244Y1148364D1*
X1198609Y1142074D1*
X1204900Y1134708D1*
X1209961Y1126449D1*
X1213668Y1117500D1*
X1215929Y1108082D1*
X1216689Y1098425D1*
X1216499Y1093582D1*
X570772Y1179859D2*
X569398Y1171183D1*
X566683Y1162828D1*
X562695Y1155000D1*
X557531Y1147893D1*
X551319Y1141681D1*
X544212Y1136518D1*
X536385Y1132529D1*
X528030Y1129815D1*
X519353Y1128440D1*
X510568D1*
X501891Y1129815D1*
X493536Y1132529D1*
X485709Y1136518D1*
X478602Y1141681D1*
X472390Y1147893D1*
X467226Y1155000D1*
X463238Y1162828D1*
X460523Y1171183D1*
X459149Y1179859D1*
Y1188644D1*
X460523Y1197321D1*
X463238Y1205676D1*
X467226Y1213504D1*
X472390Y1220611D1*
X478602Y1226823D1*
X485709Y1231986D1*
X493536Y1235975D1*
X501891Y1238689D1*
X510568Y1240064D1*
X519353D1*
X528030Y1238689D1*
X528840Y1238461D1*
X538968Y1248446D1*
X542587Y1251075D1*
X546572Y1253106D1*
X550826Y1254488D1*
X555244Y1255188D1*
X627921Y1255276D1*
X633138Y1262491D1*
X639241Y1268594D1*
X645873Y1273433D1*
X639256Y1277629D1*
X632008Y1283819D1*
X626936Y1289648D1*
X567129Y1289650D1*
X562648Y1283681D1*
X555689Y1276722D1*
X547728Y1270938D1*
X538960Y1266471D1*
X529601Y1263430D1*
X519881Y1261890D1*
X510040D1*
X500321Y1263430D1*
X490962Y1266471D1*
X482193Y1270938D1*
X474232Y1276722D1*
X467274Y1283681D1*
X461489Y1291642D1*
X457022Y1300410D1*
X453981Y1309769D1*
X452441Y1319489D1*
Y1329330D1*
X453981Y1339049D1*
X457022Y1348409D1*
X461489Y1357177D1*
X467274Y1365138D1*
X474232Y1372096D1*
X477147Y1374395D1*
X470616Y1380065D1*
X464225Y1387548D1*
X459083Y1395939D1*
X455317Y1405030D1*
X453020Y1414599D1*
X452248Y1424409D1*
X453020Y1434220D1*
X455317Y1443789D1*
X459083Y1452880D1*
X464225Y1461271D1*
X470616Y1468754D1*
X477147Y1474395D1*
X470616Y1480065D1*
X464225Y1487548D1*
X459083Y1495939D1*
X455317Y1505030D1*
X453020Y1514599D1*
X452248Y1524409D1*
X453020Y1534220D1*
X455317Y1543789D1*
X459083Y1552880D1*
X464225Y1561271D1*
X470616Y1568754D1*
X478099Y1575145D1*
X482145Y1577849D1*
X477963Y1581090D1*
X471641Y1587411D1*
X466387Y1594643D1*
X462329Y1602609D1*
X459566Y1611110D1*
X458168Y1619940D1*
Y1628879D1*
X459566Y1637708D1*
X462329Y1646210D1*
X466387Y1654175D1*
X471641Y1661408D1*
X477963Y1667729D1*
X485195Y1672983D1*
X493160Y1677041D1*
X501662Y1679804D1*
X510491Y1681202D1*
X519430D1*
X528260Y1679804D1*
X536762Y1677041D1*
X544727Y1672983D1*
X551959Y1667729D1*
X558280Y1661408D1*
X563534Y1654175D1*
X567593Y1646210D1*
X570355Y1637708D1*
X571754Y1628879D1*
Y1619940D1*
X570355Y1611110D1*
X567593Y1602609D1*
X563534Y1594643D1*
X558280Y1587411D1*
X551959Y1581090D1*
X547763Y1577865D1*
X555689Y1572096D1*
X562648Y1565138D1*
X563636Y1563884D1*
X626877Y1563894D1*
X632008Y1569724D1*
X639256Y1575915D1*
X642990Y1578409D1*
X637300Y1582677D1*
X630866Y1589111D1*
X625518Y1596473D1*
X621387Y1604581D1*
X618575Y1613235D1*
X617151Y1622222D1*
Y1631321D1*
X618575Y1640309D1*
X621387Y1648963D1*
X625518Y1657070D1*
X630866Y1664432D1*
X637300Y1670866D1*
X644662Y1676215D1*
X645608Y1676745D1*
X640876Y1679858D1*
X633957Y1685768D1*
X628047Y1692687D1*
X623293Y1700446D1*
X619811Y1708852D1*
X617686Y1717700D1*
X616972Y1726772D1*
X617686Y1735843D1*
X619811Y1744691D1*
X623293Y1753098D1*
X628047Y1760856D1*
X632351Y1766038D1*
X614217Y1766027D1*
Y1887516D1*
X735705D1*
Y1863868D1*
X836906Y1863894D1*
X902978Y1929803D1*
X907690Y1933227D1*
X912881Y1935871D1*
X918421Y1937671D1*
X924174Y1938583D1*
X973018Y1938697D1*
X1062755Y1938583D1*
X1068509Y1937671D1*
X1074049Y1935871D1*
X1079239Y1933227D1*
X1083951Y1929803D1*
X1106315Y1907601D1*
X1114961Y1908185D1*
X1123545Y1907552D1*
X1138096Y1921929D1*
X1142808Y1925353D1*
X1147999Y1927997D1*
X1153539Y1929797D1*
X1159292Y1930709D1*
X1208136Y1930823D1*
X1305747Y1930709D1*
X1311501Y1929797D1*
X1317041Y1927997D1*
X1322231Y1925353D1*
X1326944Y1921929D1*
X1348850Y1900184D1*
X1354961Y1900508D1*
X1364771Y1899736D1*
X1374340Y1897439D1*
X1383432Y1893673D1*
X1391822Y1888531D1*
X1399305Y1882140D1*
X1405696Y1874657D1*
X1410838Y1866266D1*
X1414604Y1857175D1*
X1416901Y1847606D1*
X1417673Y1837795D1*
X1416901Y1827985D1*
X1414604Y1818416D1*
X1413678Y1815908D1*
X1525465Y1815818D1*
X1529882Y1815118D1*
X1534136Y1813736D1*
X1538122Y1811705D1*
X1541740Y1809076D1*
X1608341Y1742600D1*
X1647036Y1703904D1*
X1655433Y1705825D1*
X1664961Y1706575D1*
X1674488Y1705825D1*
X1683781Y1703594D1*
X1692611Y1699936D1*
X1700760Y1694943D1*
X1708027Y1688736D1*
X1714234Y1681469D1*
X1719228Y1673320D1*
X1722885Y1664490D1*
X1725116Y1655197D1*
X1725866Y1645669D1*
X1725116Y1636142D1*
X1722885Y1626848D1*
X1719228Y1618019D1*
X1719018Y1617644D1*
X1777737Y1558932D1*
X1942759Y1558804D1*
X1949452Y1557744D1*
X1955898Y1555650D1*
X1961936Y1552573D1*
X1967419Y1548589D1*
X1995892Y1520304D1*
X2277802Y1238207D1*
X2281785Y1232724D1*
X2284862Y1226685D1*
X2286956Y1220240D1*
X2288017Y1213546D1*
X2288150Y1173412D1*
X2288017Y1148659D1*
X2286956Y1141965D1*
X2284862Y1135519D1*
X2281785Y1129481D1*
X2277802Y1123998D1*
X2249517Y1095525D1*
X2238682Y1084690D1*
X2314638Y1084597D1*
X2319056Y1083898D1*
X2323310Y1082515D1*
X2327295Y1080485D1*
X2330913Y1077856D1*
X2333496Y1075398D1*
X2340800Y1076490D1*
X2349121D1*
X2357341Y1075188D1*
X2365255Y1072617D1*
X2372670Y1068839D1*
X2379402Y1063948D1*
X2385286Y1058063D1*
X2389644Y1052129D1*
X2411956Y1052126D1*
X2411929Y1076654D1*
X2517992D1*
Y1059393D1*
X2524574Y1064977D1*
X2532064Y1069567D1*
X2540180Y1072929D1*
X2548722Y1074980D1*
X2557480Y1075669D1*
X2566238Y1074980D1*
X2574780Y1072929D1*
X2582897Y1069567D1*
X2590387Y1064977D1*
X2597067Y1059272D1*
X2602773Y1052592D1*
X2607363Y1045101D1*
X2610725Y1036985D1*
X2612775Y1028443D1*
X2613465Y1019685D1*
X2612775Y1010927D1*
X2610725Y1002385D1*
X2607363Y994269D1*
X2602773Y986778D1*
X2597067Y980098D1*
X2590387Y974393D1*
X2582897Y969803D1*
X2574780Y966441D1*
X2566238Y964390D1*
X2557480Y963701D1*
X2548722Y964390D1*
X2540180Y966441D1*
X2532064Y969803D1*
X2524574Y974393D1*
X2517982Y980017D1*
X2517992Y970591D1*
X2411929D1*
Y995099D1*
X2389711Y995118D1*
X2385286Y989181D1*
X2379402Y983297D1*
X2372670Y978405D1*
X2365255Y974627D1*
X2357341Y972056D1*
X2349121Y970754D1*
X2340800D1*
X2332581Y972056D1*
X2324666Y974627D1*
X2317252Y978405D1*
X2310519Y983297D1*
X2304635Y989181D1*
X2299744Y995913D1*
X2295966Y1003328D1*
X2293394Y1011242D1*
X2292093Y1019461D1*
X2292088Y1027669D1*
X2066774Y1027677D1*
X2069432Y1019377D1*
X2070808Y1010694D1*
Y1001904D1*
X2069432Y993222D1*
X2066716Y984861D1*
X2062725Y977029D1*
X2057558Y969917D1*
X2051343Y963702D1*
X2044231Y958535D1*
X2036398Y954544D1*
X2028038Y951827D1*
X2019356Y950452D1*
X2010565D1*
X2001883Y951827D1*
X1993523Y954544D1*
X1985690Y958535D1*
X1978579Y963702D1*
X1972363Y969917D1*
X1967196Y977029D1*
X1963205Y984861D1*
X1960489Y993222D1*
X1959427Y999259D1*
X1844654Y884625D1*
X1841035Y881996D1*
X1837050Y879965D1*
X1832796Y878583D1*
X1828378Y877883D1*
X1759648Y877795D1*
X1755286Y871858D1*
X1749402Y865974D1*
X1742670Y861082D1*
X1735255Y857304D1*
X1727341Y854733D1*
X1719121Y853431D1*
X1710800D1*
X1702581Y854733D1*
X1694666Y857304D1*
X1689196Y859994D1*
X1689209Y797530D1*
X1756361Y730390D1*
X1764961Y731020D1*
X1774617Y730260D1*
X1784036Y727998D1*
X1792985Y724292D1*
X1801244Y719231D1*
X1808609Y712940D1*
X1814900Y705574D1*
X1819961Y697315D1*
X1823668Y688366D1*
X1825929Y678948D1*
X1826689Y669291D1*
X1825929Y659635D1*
X1823668Y650216D1*
X1819961Y641267D1*
X1814900Y633008D1*
X1808609Y625643D1*
X1804589Y621989D1*
X1804602Y580837D1*
X1811129Y575145D1*
X1817420Y567779D1*
X1822481Y559520D1*
X1826187Y550571D1*
X1828449Y541153D1*
X1829209Y531496D1*
X1828449Y521840D1*
X1826187Y512421D1*
X1822481Y503472D1*
X1817420Y495213D1*
X1811129Y487848D1*
X1803763Y481557D1*
X1795504Y476496D1*
X1786555Y472789D1*
X1777137Y470528D1*
X1767480Y469768D1*
X1757824Y470528D1*
X1748405Y472789D1*
X1739456Y476496D1*
X1731197Y481557D1*
X1723832Y487848D1*
X1717541Y495213D1*
X1712480Y503472D1*
X1708773Y512421D1*
X1706512Y521840D1*
X1705752Y531496D1*
X1706512Y541153D1*
X1708773Y550571D1*
X1712480Y559520D1*
X1717541Y567779D1*
X1723832Y575145D1*
X1730350Y580767D1*
X1730358Y618156D1*
X1724871Y622353D1*
X1718022Y629202D1*
X1712329Y637038D1*
X1707931Y645669D1*
X1704938Y654881D1*
X1703423Y664448D1*
Y674134D1*
X1703865Y677876D1*
X1623859Y758056D1*
X1620435Y762769D1*
X1617790Y767959D1*
X1615990Y773499D1*
X1615079Y779253D1*
X1614964Y828097D1*
X1615079Y972794D1*
X1615990Y978548D1*
X1617790Y984088D1*
X1620435Y989278D1*
X1623859Y993991D1*
X1658316Y1028610D1*
X1662591Y1032983D1*
X1667410Y1040847D1*
X1673094Y1047529D1*
X1656185Y1047523D1*
Y1165075D1*
X1678296Y1165099D1*
X1679655Y1170763D1*
X1681885Y1176144D1*
X1684928Y1181111D1*
X1688720Y1185548D1*
X1818962Y1315629D1*
X1823675Y1319053D1*
X1828865Y1321698D1*
X1834405Y1323498D1*
X1840158Y1324409D1*
X1889003Y1324524D1*
X1895641D1*
X1901312Y1331050D1*
X1908678Y1337341D1*
X1916937Y1342402D1*
X1925886Y1346109D1*
X1935304Y1348370D1*
X1944961Y1349130D1*
X1954617Y1348370D1*
X1964036Y1346109D1*
X1972985Y1342402D1*
X1981244Y1337341D1*
X1988609Y1331050D1*
X1994232Y1324532D1*
X2069532Y1324524D1*
X1921479Y1472560D1*
X1904670Y1472559D1*
X1910253Y1465978D1*
X1914843Y1458487D1*
X1918205Y1450371D1*
X1920256Y1441829D1*
X1920945Y1433071D1*
X1920256Y1424313D1*
X1918205Y1415771D1*
X1914843Y1407655D1*
X1910253Y1400164D1*
X1904547Y1393484D1*
X1897867Y1387779D1*
X1890377Y1383189D1*
X1882261Y1379827D1*
X1873718Y1377776D1*
X1864961Y1377087D1*
X1856203Y1377776D1*
X1847661Y1379827D1*
X1839544Y1383189D1*
X1832054Y1387779D1*
X1825374Y1393484D1*
X1819668Y1400164D1*
X1816815Y1404553D1*
X1586751Y1404567D1*
X1530996Y1348795D1*
X1537480Y1349130D1*
X1547137Y1348370D1*
X1556555Y1346109D1*
X1565504Y1342402D1*
X1573763Y1337341D1*
X1581129Y1331050D1*
X1587420Y1323685D1*
X1592481Y1315426D1*
X1596187Y1306477D1*
X1598449Y1297058D1*
X1599209Y1287402D1*
X1598449Y1277745D1*
X1596187Y1268326D1*
X1592481Y1259377D1*
X1587420Y1251119D1*
X1581129Y1243753D1*
X1574611Y1238130D1*
X1574602Y1204043D1*
X1581899Y1196782D1*
X1587593Y1188946D1*
X1591990Y1180315D1*
X1594983Y1171103D1*
X1596499Y1161536D1*
Y1151850D1*
X1594983Y1142283D1*
X1591990Y1133070D1*
X1587593Y1124440D1*
X1581899Y1116604D1*
X1575050Y1109754D1*
X1567214Y1104061D1*
X1558583Y1099663D1*
X1549371Y1096670D1*
X1539804Y1095155D1*
X1530117D1*
X1520550Y1096670D1*
X1511338Y1099663D1*
X1502708Y1104061D1*
X1494871Y1109754D1*
X1488022Y1116604D1*
X1482329Y1124440D1*
X1477931Y1133070D1*
X1474938Y1142283D1*
X1473423Y1151850D1*
Y1161536D1*
X1474938Y1171103D1*
X1477931Y1180315D1*
X1482329Y1188946D1*
X1488022Y1196782D1*
X1494871Y1203632D1*
X1500362Y1207758D1*
X1500358Y1238050D1*
X1493832Y1243753D1*
X1487541Y1251119D1*
X1482480Y1259377D1*
X1478773Y1268326D1*
X1476512Y1277745D1*
X1475752Y1287402D1*
X1476145Y1293956D1*
X1333485Y1151285D1*
X1333465Y1064497D1*
X1366635Y1031189D1*
X1369264Y1027570D1*
X1371295Y1023585D1*
X1372677Y1019331D1*
X1373377Y1014914D1*
X1373465Y920814D1*
X1373377Y802724D1*
X1372677Y798307D1*
X1371295Y794053D1*
X1369264Y790067D1*
X1366635Y786449D1*
X1336164Y755854D1*
X1340838Y748156D1*
X1344604Y739064D1*
X1346901Y729495D1*
X1347673Y719685D1*
X1346901Y709875D1*
X1344604Y700306D1*
X1340838Y691214D1*
X1335696Y682823D1*
X1329305Y675341D1*
X1321822Y668949D1*
X1317776Y666246D1*
X1321959Y663004D1*
X1328280Y656683D1*
X1333534Y649451D1*
X1337593Y641486D1*
X1340355Y632984D1*
X1341754Y624155D1*
Y615215D1*
X1340355Y606386D1*
X1337593Y597884D1*
X1333534Y589919D1*
X1328280Y582687D1*
X1321959Y576366D1*
X1314727Y571111D1*
X1306762Y567053D1*
X1298260Y564291D1*
X1289430Y562892D1*
X1280491D1*
X1271662Y564291D1*
X1263160Y567053D1*
X1255195Y571111D1*
X1247963Y576366D1*
X1241641Y582687D1*
X1236387Y589919D1*
X1232329Y597884D1*
X1229566Y606386D1*
X1228168Y615215D1*
Y624155D1*
X1229566Y632984D1*
X1232329Y641486D1*
X1236387Y649451D1*
X1241641Y656683D1*
X1247963Y663004D1*
X1252158Y666230D1*
X1244232Y671998D1*
X1237274Y678956D1*
X1231489Y686918D1*
X1227022Y695686D1*
X1223981Y705045D1*
X1222441Y714765D1*
Y724605D1*
X1223981Y734325D1*
X1226829Y743161D1*
X1218606Y743150D1*
X1025026Y549598D1*
X1027269Y543768D1*
X1029283Y535376D1*
X1029961Y526772D1*
X1029283Y518168D1*
X1027269Y509776D1*
X1023966Y501802D1*
X1019457Y494443D1*
X1013852Y487881D1*
X1007289Y482276D1*
X999930Y477766D1*
X991957Y474464D1*
X983565Y472449D1*
X974961Y471772D1*
X966357Y472449D1*
X957965Y474464D1*
X949991Y477766D1*
X942632Y482276D1*
X936070Y487881D1*
X930465Y494443D1*
X925955Y501802D1*
X922653Y509776D1*
X920638Y518168D1*
X919961Y526772D1*
X920638Y535376D1*
X922653Y543768D1*
X925955Y551741D1*
X930465Y559100D1*
X936070Y565663D1*
X942632Y571268D1*
X945873Y573433D1*
X939256Y577629D1*
X932008Y583819D1*
X925818Y591067D1*
X920837Y599194D1*
X917190Y608001D1*
X914964Y617269D1*
X914217Y626772D1*
X914964Y636274D1*
X917190Y645543D1*
X920837Y654349D1*
X925818Y662476D1*
X932008Y669724D1*
X939256Y675915D1*
X940511Y676753D1*
X935510Y680581D1*
X928770Y687322D1*
X923168Y695033D1*
X918840Y703526D1*
X915895Y712591D1*
X914404Y722006D1*
Y731538D1*
X915895Y740952D1*
X918840Y750017D1*
X923168Y758510D1*
X928770Y766222D1*
X935510Y772962D1*
X940511Y776753D1*
X935510Y780581D1*
X928770Y787322D1*
X923168Y795033D1*
X918840Y803526D1*
X915895Y812591D1*
X914404Y822006D1*
Y831538D1*
X915895Y840952D1*
X918840Y850017D1*
X923168Y858510D1*
X928770Y866222D1*
X935510Y872962D1*
X940511Y876753D1*
X935510Y880581D1*
X928770Y887322D1*
X923168Y895033D1*
X918840Y903526D1*
X915895Y912591D1*
X914404Y922006D1*
Y931538D1*
X915895Y940952D1*
X918840Y950017D1*
X923168Y958510D1*
X928770Y966222D1*
X935510Y972962D1*
X943222Y978565D1*
X945904Y980067D1*
X939241Y984949D1*
X933138Y991052D1*
X928065Y998034D1*
X924147Y1005724D1*
X921480Y1013932D1*
X920130Y1022456D1*
Y1031087D1*
X921549Y1039855D1*
X763156Y1198266D1*
X722031Y1198268D1*
X716783Y1191052D1*
X710680Y1184949D1*
X703698Y1179876D1*
X701287Y1178440D1*
X709045Y1173685D1*
X715964Y1167775D1*
X721874Y1160856D1*
X726628Y1153098D1*
X730111Y1144691D1*
X732235Y1135843D1*
X732949Y1126772D1*
X732235Y1117700D1*
X730111Y1108852D1*
X726628Y1100446D1*
X721874Y1092687D1*
X715964Y1085768D1*
X709045Y1079858D1*
X704313Y1076798D1*
X709045Y1073685D1*
X715964Y1067775D1*
X721874Y1060856D1*
X726628Y1053098D1*
X730111Y1044691D1*
X732235Y1035843D1*
X732949Y1026772D1*
X732235Y1017700D1*
X730111Y1008852D1*
X726628Y1000446D1*
X721874Y992687D1*
X715964Y985768D1*
X709045Y979858D1*
X704313Y976798D1*
X709045Y973685D1*
X715964Y967775D1*
X721874Y960856D1*
X726628Y953098D1*
X730111Y944691D1*
X732235Y935843D1*
X732949Y926772D1*
X732235Y917700D1*
X730111Y908852D1*
X726628Y900446D1*
X721874Y892687D1*
X715964Y885768D1*
X709045Y879858D1*
X704313Y876798D1*
X709045Y873685D1*
X715964Y867775D1*
X721874Y860856D1*
X726628Y853098D1*
X730111Y844691D1*
X732235Y835843D1*
X732949Y826772D1*
X732235Y817700D1*
X730111Y808852D1*
X726628Y800446D1*
X721874Y792687D1*
X715964Y785768D1*
X709045Y779858D1*
X704313Y776798D1*
X709045Y773685D1*
X715964Y767775D1*
X721874Y760856D1*
X726628Y753098D1*
X730111Y744691D1*
X732235Y735843D1*
X732949Y726772D1*
X732235Y717700D1*
X730111Y708852D1*
X726628Y700446D1*
X721874Y692687D1*
X715964Y685768D1*
X709045Y679858D1*
X704313Y676798D1*
X709045Y673685D1*
X715964Y667775D1*
X721874Y660856D1*
X726628Y653098D1*
X730111Y644691D1*
X732235Y635843D1*
X732949Y626772D1*
X732235Y617700D1*
X730111Y608852D1*
X726628Y600446D1*
X721874Y592687D1*
X715964Y585768D1*
X709045Y579858D1*
X704313Y576798D1*
X709045Y573685D1*
X715964Y567775D1*
X721874Y560856D1*
X726628Y553098D1*
X730111Y544691D1*
X732235Y535843D1*
X732949Y526772D1*
X732235Y517700D1*
X730111Y508852D1*
X726628Y500446D1*
X721874Y492687D1*
X715964Y485768D1*
X709045Y479858D1*
X701287Y475104D1*
X692880Y471622D1*
X684032Y469497D1*
X674961Y468783D1*
X665889Y469497D1*
X657041Y471622D1*
X648635Y475104D1*
X640876Y479858D1*
X633957Y485768D1*
X628047Y492687D1*
X623293Y500446D1*
X619811Y508852D1*
X617686Y517700D1*
X616972Y526772D1*
X617686Y535843D1*
X619811Y544691D1*
X623293Y553098D1*
X628047Y560856D1*
X633957Y567775D1*
X640876Y573685D1*
X645608Y576745D1*
X640876Y579858D1*
X633957Y585768D1*
X628047Y592687D1*
X623293Y600446D1*
X619811Y608852D1*
X617686Y617700D1*
X616972Y626772D1*
X617686Y635843D1*
X619811Y644691D1*
X623293Y653098D1*
X628047Y660856D1*
X633957Y667775D1*
X640876Y673685D1*
X645608Y676745D1*
X640876Y679858D1*
X633957Y685768D1*
X628047Y692687D1*
X623293Y700446D1*
X619811Y708852D1*
X617686Y717700D1*
X616972Y726772D1*
X617686Y735843D1*
X619811Y744691D1*
X623293Y753098D1*
X628047Y760856D1*
X633957Y767775D1*
X640876Y773685D1*
X645608Y776745D1*
X640876Y779858D1*
X633957Y785768D1*
X628047Y792687D1*
X623293Y800446D1*
X619811Y808852D1*
X617686Y817700D1*
X616972Y826772D1*
X617686Y835843D1*
X619811Y844691D1*
X623293Y853098D1*
X628047Y860856D1*
X633957Y867775D1*
X640876Y873685D1*
X645608Y876745D1*
X640876Y879858D1*
X633957Y885768D1*
X628047Y892687D1*
X623293Y900446D1*
X619811Y908852D1*
X617686Y917700D1*
X616972Y926772D1*
X617686Y935843D1*
X619811Y944691D1*
X623293Y953098D1*
X628047Y960856D1*
X633957Y967775D1*
X640876Y973685D1*
X645608Y976745D1*
X640876Y979858D1*
X633957Y985768D1*
X628047Y992687D1*
X623293Y1000446D1*
X619811Y1008852D1*
X617686Y1017700D1*
X616972Y1026772D1*
X617686Y1035843D1*
X619811Y1044691D1*
X623293Y1053098D1*
X628047Y1060856D1*
X633957Y1067775D1*
X640876Y1073685D1*
X645608Y1076745D1*
X640876Y1079858D1*
X633957Y1085768D1*
X628047Y1092687D1*
X623293Y1100446D1*
X619811Y1108852D1*
X617686Y1117700D1*
X616972Y1126772D1*
X617686Y1135843D1*
X619811Y1144691D1*
X623293Y1153098D1*
X628047Y1160856D1*
X633957Y1167775D1*
X640876Y1173685D1*
X648683Y1178462D1*
X642632Y1182276D1*
X636070Y1187881D1*
X630465Y1194443D1*
X627942Y1198255D1*
X569282Y1198268D1*
X570772Y1188644D1*
Y1179859D1*
X2863106Y810065D2*
X2860253Y805676D1*
X2854547Y798996D1*
X2847867Y793290D1*
X2840377Y788700D1*
X2832261Y785338D1*
X2823718Y783288D1*
X2814961Y782598D1*
X2806203Y783288D1*
X2797661Y785338D1*
X2789544Y788700D1*
X2782054Y793290D1*
X2775374Y798996D1*
X2769668Y805676D1*
X2765078Y813166D1*
X2761716Y821283D1*
X2759666Y829825D1*
X2758976Y838583D1*
X2759666Y847341D1*
X2761716Y855883D1*
X2765078Y863999D1*
X2769668Y871489D1*
X2775374Y878170D1*
X2782054Y883875D1*
X2789544Y888465D1*
X2797661Y891827D1*
X2806203Y893878D1*
X2814961Y894567D1*
X2823718Y893878D1*
X2832261Y891827D1*
X2840377Y888465D1*
X2847867Y883875D1*
X2854547Y878170D1*
X2860253Y871489D1*
X2863106Y867100D1*
X2882387Y867087D1*
X2882401Y1046993D1*
X2760502Y1168927D1*
X2754094Y1176429D1*
X2748939Y1184842D1*
X2745164Y1193957D1*
X2742861Y1203550D1*
X2742087Y1213386D1*
X2742861Y1223222D1*
X2745164Y1232815D1*
X2748939Y1241930D1*
X2754094Y1250342D1*
X2760502Y1257845D1*
X2766868Y1263357D1*
X2760502Y1268927D1*
X2754094Y1276429D1*
X2748939Y1284842D1*
X2745164Y1293957D1*
X2742861Y1303550D1*
X2742087Y1313386D1*
X2742861Y1323221D1*
X2745164Y1332815D1*
X2748939Y1341930D1*
X2754094Y1350342D1*
X2755630Y1352480D1*
X2744055D1*
Y1384884D1*
X2639140Y1384882D1*
X2636046Y1379861D1*
X2637545Y1374543D1*
X2637834Y1370859D1*
X2637762Y1349337D1*
X2636684Y1343918D1*
X2634371Y1338900D1*
X2630945Y1334556D1*
X2634547Y1327551D1*
X2636641Y1321106D1*
X2637702Y1314412D1*
Y1307635D1*
X2636641Y1300941D1*
X2634547Y1294496D1*
X2631470Y1288457D1*
X2627487Y1282975D1*
X2622695Y1278182D1*
X2617212Y1274199D1*
X2611173Y1271122D1*
X2604728Y1269028D1*
X2598034Y1267968D1*
X2557900Y1267834D1*
X2551887Y1267968D1*
X2545193Y1269028D1*
X2538748Y1271122D1*
X2532709Y1274199D1*
X2527227Y1278182D1*
X2522857Y1282517D1*
X2503039Y1282607D1*
X2498621Y1283307D1*
X2494368Y1284689D1*
X2490382Y1286720D1*
X2486764Y1289349D1*
X2420163Y1355826D1*
X2399546Y1376567D1*
X2396917Y1380185D1*
X2394886Y1384171D1*
X2393504Y1388425D1*
X2392804Y1392842D1*
X2392716Y1474419D1*
X2384862Y1480067D1*
X2378650Y1486279D1*
X2373343Y1493641D1*
X2326670Y1446990D1*
X2327736Y1441829D1*
X2328425Y1433071D1*
X2327736Y1424313D1*
X2325685Y1415771D1*
X2322323Y1407655D1*
X2317733Y1400164D1*
X2312028Y1393484D1*
X2305348Y1387779D1*
X2297857Y1383189D1*
X2289741Y1379827D1*
X2281199Y1377776D1*
X2272441Y1377087D1*
X2263683Y1377776D1*
X2255141Y1379827D1*
X2247025Y1383189D1*
X2239534Y1387779D1*
X2232854Y1393484D1*
X2227149Y1400164D1*
X2222559Y1407655D1*
X2219197Y1415771D1*
X2217146Y1424313D1*
X2216457Y1433071D1*
X2217146Y1441829D1*
X2219197Y1450371D1*
X2222559Y1458487D1*
X2227149Y1465978D1*
X2232854Y1472658D1*
X2239534Y1478363D1*
X2247025Y1482953D1*
X2255141Y1486315D1*
X2263683Y1488366D1*
X2272441Y1489055D1*
X2281199Y1488366D1*
X2286320Y1487280D1*
X2343496Y1544312D1*
X2347115Y1546941D1*
X2351100Y1548972D1*
X2355354Y1550354D1*
X2359771Y1551054D1*
X2373024Y1551142D1*
X2378650Y1558997D1*
X2384862Y1565209D1*
X2391969Y1570372D1*
X2399796Y1574360D1*
X2408151Y1577075D1*
X2416828Y1578449D1*
X2425613D1*
X2434290Y1577075D1*
X2442645Y1574360D1*
X2450472Y1570372D1*
X2457579Y1565209D1*
X2463791Y1558997D1*
X2468955Y1551889D1*
X2472943Y1544062D1*
X2475658Y1535707D1*
X2477032Y1527030D1*
Y1518245D1*
X2475658Y1509569D1*
X2472943Y1501214D1*
X2468955Y1493386D1*
X2463791Y1486279D1*
X2457579Y1480067D1*
X2450472Y1474903D1*
X2449738Y1474492D1*
X2449724Y1406911D1*
X2513514Y1343096D1*
X2512376Y1347504D1*
X2512087Y1351188D1*
X2512159Y1372710D1*
X2513237Y1378129D1*
X2515550Y1383147D1*
X2518976Y1387491D1*
X2530168Y1398581D1*
X2534762Y1401651D1*
X2539946Y1403563D1*
X2545433Y1404213D1*
X2577836D1*
X2608811Y1435060D1*
X2612430Y1437689D1*
X2616415Y1439720D1*
X2620669Y1441102D1*
X2625086Y1441802D1*
X2719186Y1441890D1*
X2744054D1*
X2744055Y1474291D1*
X2761746D1*
X2761772Y1716356D1*
X2757226Y1722717D1*
X2753238Y1730544D1*
X2750523Y1738899D1*
X2749149Y1747576D1*
Y1756361D1*
X2750523Y1765038D1*
X2753238Y1773393D1*
X2757226Y1781220D1*
X2762390Y1788327D1*
X2768602Y1794539D1*
X2775709Y1799703D1*
X2783536Y1803691D1*
X2791891Y1806406D1*
X2800568Y1807780D1*
X2809353D1*
X2818030Y1806406D1*
X2826385Y1803691D1*
X2831081Y1801456D1*
X2805662Y1826873D1*
X2533212Y1826890D1*
X2533189Y1681827D1*
X2537681Y1676375D1*
X2542513Y1668489D1*
X2546052Y1659945D1*
X2548211Y1650952D1*
X2548937Y1641732D1*
X2548211Y1632513D1*
X2546052Y1623520D1*
X2542513Y1614975D1*
X2537681Y1607090D1*
X2531675Y1600058D1*
X2524642Y1594051D1*
X2516757Y1589219D1*
X2508213Y1585680D1*
X2499220Y1583521D1*
X2490000Y1582795D1*
X2480780Y1583521D1*
X2471787Y1585680D1*
X2463243Y1589219D1*
X2455358Y1594051D1*
X2448325Y1600058D1*
X2442319Y1607090D1*
X2437487Y1614975D1*
X2433948Y1623520D1*
X2431789Y1632513D1*
X2431063Y1641732D1*
X2431789Y1650952D1*
X2433948Y1659945D1*
X2437487Y1668489D1*
X2442319Y1676375D1*
X2446816Y1681774D1*
X2446811Y1725522D1*
X2442773Y1719062D1*
X2437067Y1712382D1*
X2430387Y1706676D1*
X2422897Y1702086D1*
X2414780Y1698724D1*
X2406238Y1696674D1*
X2397480Y1695984D1*
X2388722Y1696674D1*
X2380180Y1698724D1*
X2372064Y1702086D1*
X2364574Y1706676D1*
X2361917Y1708771D1*
X2183072Y1708779D1*
X2113905Y1639598D1*
X2113898Y1582795D1*
X1996024D1*
Y1598548D1*
X1925885Y1598543D1*
X1925866Y1584764D1*
X1804055D1*
Y1706575D1*
X1925866D1*
Y1684936D1*
X1996035Y1684921D1*
X1996024Y1700669D1*
X2052828D1*
X2137148Y1784810D1*
X2142631Y1788793D1*
X2148669Y1791870D1*
X2155115Y1793964D1*
X2161808Y1795024D1*
X2201942Y1795158D1*
X2361878D1*
X2368229Y1799703D1*
X2376056Y1803691D1*
X2384411Y1806406D1*
X2393088Y1807780D1*
X2401873D1*
X2410550Y1806406D1*
X2418905Y1803691D1*
X2426732Y1799703D1*
X2433839Y1794539D1*
X2440051Y1788327D1*
X2445215Y1781220D1*
X2446817Y1778359D1*
X2446811Y1842361D1*
X2441343Y1846670D1*
X2436582Y1851071D1*
X2432182Y1855831D1*
X2428169Y1860922D1*
X2424567Y1866312D1*
X2421400Y1871968D1*
X2418686Y1877855D1*
X2416442Y1883937D1*
X2414683Y1890176D1*
X2413418Y1896534D1*
X2412656Y1902971D1*
X2412401Y1909449D1*
X2412656Y1915926D1*
X2413418Y1922364D1*
X2414683Y1928722D1*
X2416442Y1934961D1*
X2418686Y1941043D1*
X2422080Y1948145D1*
X417437Y1948130D1*
X417461Y418005D1*
X3052388Y418012D1*
X3042541Y1948097D1*
X2917919Y1948130D1*
X2993339Y1872709D1*
X2997739Y1867949D1*
X3001752Y1862858D1*
X3005354Y1857468D1*
X3008521Y1851812D1*
X3011235Y1845925D1*
X3013479Y1839843D1*
X3015239Y1833604D1*
X3016503Y1827246D1*
X3017265Y1820808D1*
X3017520Y1805144D1*
Y1366457D1*
X3017265Y1359979D1*
X3016503Y1353542D1*
X3015239Y1347184D1*
X3013479Y1340945D1*
X3011235Y1334863D1*
X3008521Y1328976D1*
X3005354Y1323320D1*
X3001752Y1317930D1*
X2997739Y1312839D1*
X2993339Y1308079D1*
X2988578Y1303678D1*
X2983488Y1299665D1*
X2978098Y1296064D1*
X2972442Y1292896D1*
X2966555Y1290182D1*
X2960473Y1287938D1*
X2954234Y1286179D1*
X2947876Y1284914D1*
X2941614Y1284173D1*
X2922723Y1265576D1*
X2914741Y1259777D1*
X2905951Y1255298D1*
X2896567Y1252249D1*
X2886823Y1250706D1*
X2863517Y1250512D1*
X2856735D1*
X2971595Y1135669D1*
X2977876Y1134929D1*
X2984234Y1133664D1*
X2990473Y1131904D1*
X2996555Y1129661D1*
X3002442Y1126947D1*
X3008098Y1123779D1*
X3013488Y1120178D1*
X3018579Y1116164D1*
X3023339Y1111764D1*
X3027739Y1107004D1*
X3031752Y1101913D1*
X3035354Y1096523D1*
X3038521Y1090867D1*
X3041235Y1084980D1*
X3043479Y1078898D1*
X3045239Y1072659D1*
X3046503Y1066301D1*
X3047265Y1059863D1*
X3047520Y1044199D1*
Y866142D1*
X3047265Y859664D1*
X3046503Y853227D1*
X3045239Y846869D1*
X3043479Y840630D1*
X3041235Y834548D1*
X3038521Y828661D1*
X3035354Y823005D1*
X3031752Y817615D1*
X3027739Y812524D1*
X3023339Y807764D1*
X3018579Y803363D1*
X3013488Y799350D1*
X3008098Y795748D1*
X3002442Y792581D1*
X2996555Y789867D1*
X2990473Y787623D1*
X2984234Y785864D1*
X2977876Y784599D1*
X2971438Y783837D1*
X2964961Y783583D1*
X2958483Y783837D1*
X2952046Y784599D1*
X2945688Y785864D1*
X2939448Y787623D1*
X2933367Y789867D1*
X2927480Y792581D1*
X2921824Y795748D1*
X2916434Y799350D1*
X2911343Y803363D1*
X2904434Y810088D1*
X2863157Y810079D1*
X567096Y1489643D2*
X562648Y1483681D1*
X555689Y1476722D1*
X552774Y1474424D1*
X559305Y1468754D1*
X563636Y1463884D1*
X626877Y1463894D1*
X632008Y1469724D1*
X639256Y1475915D1*
X640511Y1476753D1*
X635510Y1480581D1*
X628770Y1487322D1*
X626936Y1489648D1*
X567129Y1489650D1*
X567096Y1389643D2*
X562648Y1383681D1*
X555689Y1376722D1*
X552774Y1374424D1*
X559305Y1368754D1*
X563636Y1363884D1*
X626877Y1363894D1*
X632008Y1369724D1*
X639256Y1375915D1*
X640511Y1376753D1*
X635510Y1380581D1*
X628770Y1387322D1*
X626936Y1389648D1*
X567129Y1389650D1*
X1234428Y856803D2*
X1240616Y864030D1*
X1247147Y869670D1*
X1240616Y875341D1*
X1234428Y882567D1*
X1183229Y882563D1*
X1155276Y854588D1*
X1162067Y856350D1*
X1167885Y856807D1*
X1234439D1*
X1405391Y1700508D2*
X1417673D1*
Y1575083D1*
X1342065D1*
X1342083Y1240521D1*
X1556449Y1454746D1*
X1560067Y1457375D1*
X1564053Y1459405D1*
X1568306Y1460787D1*
X1572724Y1461487D1*
X1666824Y1461575D1*
X1816784D1*
X1819668Y1465978D1*
X1825292Y1472569D1*
X1756454Y1472692D1*
X1749760Y1473752D1*
X1743315Y1475847D1*
X1737276Y1478923D1*
X1731793Y1482907D1*
X1703320Y1511192D1*
X1632119Y1582581D1*
X1628136Y1588064D1*
X1625059Y1594102D1*
X1622962Y1600561D1*
X1621894Y1602603D1*
X1615687Y1609870D1*
X1610693Y1618019D1*
X1607036Y1626848D1*
X1604805Y1636142D1*
X1604055Y1645669D1*
X1604805Y1655197D1*
X1606767Y1663537D1*
X1511414Y1758905D1*
X1414033Y1758898D1*
X1415940Y1752435D1*
X1417480Y1742716D1*
Y1732875D1*
X1415940Y1723155D1*
X1412900Y1713796D1*
X1408432Y1705028D1*
X1405351Y1700496D1*
X1225006Y1589348D2*
X1217963Y1594476D1*
X1211641Y1600797D1*
X1206387Y1608029D1*
X1202329Y1615994D1*
X1199566Y1624496D1*
X1198168Y1633326D1*
Y1642265D1*
X1199051Y1648507D1*
X1183286Y1664402D1*
X1180657Y1668020D1*
X1178626Y1672005D1*
X1177244Y1676259D1*
X1176545Y1680677D1*
X1176457Y1761339D1*
X1176808Y1765798D1*
X1177852Y1770147D1*
X1179563Y1774279D1*
X1181900Y1778093D1*
X1184805Y1781494D1*
X1212512Y1809076D1*
X1216130Y1811705D1*
X1220116Y1813736D1*
X1224369Y1815118D1*
X1228787Y1815818D1*
X1296225Y1815906D1*
X1293981Y1823155D1*
X1292441Y1832875D1*
Y1842716D1*
X1293587Y1850454D1*
X1287479Y1856558D1*
X1177563Y1856579D1*
X1176499Y1851300D1*
Y1841614D1*
X1174983Y1832046D1*
X1171990Y1822834D1*
X1167593Y1814204D1*
X1161899Y1806367D1*
X1155050Y1799518D1*
X1147214Y1793825D1*
X1138583Y1789427D1*
X1129371Y1786434D1*
X1119804Y1784919D1*
X1110117D1*
X1100550Y1786434D1*
X1091338Y1789427D1*
X1082708Y1793825D1*
X1074871Y1799518D1*
X1068022Y1806367D1*
X1062329Y1814204D1*
X1057931Y1822834D1*
X1054938Y1832046D1*
X1053423Y1841614D1*
Y1851300D1*
X1053865Y1855041D1*
X1044484Y1864434D1*
X1019055Y1864432D1*
X1024404Y1857070D1*
X1028535Y1848963D1*
X1031347Y1840309D1*
X1032770Y1831321D1*
Y1822222D1*
X1031347Y1813235D1*
X1028535Y1804581D1*
X1024404Y1796473D1*
X1019055Y1789111D1*
X1012621Y1782677D1*
X1005259Y1777329D1*
X1004313Y1776798D1*
X1009045Y1773685D1*
X1015964Y1767775D1*
X1021874Y1760856D1*
X1026628Y1753098D1*
X1030111Y1744691D1*
X1032235Y1735843D1*
X1032949Y1726772D1*
X1032235Y1717700D1*
X1030111Y1708852D1*
X1026628Y1700446D1*
X1021874Y1692687D1*
X1015964Y1685768D1*
X1009045Y1679858D1*
X1004313Y1676798D1*
X1009045Y1673685D1*
X1015964Y1667775D1*
X1021874Y1660856D1*
X1026628Y1653098D1*
X1030111Y1644691D1*
X1032235Y1635843D1*
X1032949Y1626772D1*
X1032235Y1617700D1*
X1030111Y1608852D1*
X1026628Y1600446D1*
X1021874Y1592687D1*
X1015964Y1585768D1*
X1009045Y1579858D1*
X1004313Y1576798D1*
X1009045Y1573685D1*
X1015964Y1567775D1*
X1021874Y1560856D1*
X1026628Y1553098D1*
X1030111Y1544691D1*
X1032235Y1535843D1*
X1032949Y1526772D1*
X1032235Y1517700D1*
X1030111Y1508852D1*
X1026628Y1500446D1*
X1021874Y1492687D1*
X1015964Y1485768D1*
X1009045Y1479858D1*
X1004313Y1476798D1*
X1009045Y1473685D1*
X1015964Y1467775D1*
X1021874Y1460856D1*
X1026628Y1453098D1*
X1030111Y1444691D1*
X1032235Y1435843D1*
X1032949Y1426772D1*
X1032235Y1417700D1*
X1030111Y1408852D1*
X1029230Y1406466D1*
X1039213Y1406457D1*
X1060175Y1427415D1*
X1059149Y1434584D1*
Y1443369D1*
X1060523Y1452046D1*
X1063238Y1460401D1*
X1067226Y1468228D1*
X1072390Y1475335D1*
X1078602Y1481547D1*
X1085709Y1486711D1*
X1093536Y1490699D1*
X1101891Y1493414D1*
X1110568Y1494788D1*
X1119353D1*
X1128030Y1493414D1*
X1128840Y1493185D1*
X1224999Y1589325D1*
X1170772Y1434584D2*
X1169398Y1425907D1*
X1166683Y1417552D1*
X1162695Y1409725D1*
X1157531Y1402618D1*
X1151319Y1396406D1*
X1144212Y1391242D1*
X1136385Y1387254D1*
X1128030Y1384539D1*
X1119353Y1383165D1*
X1110568D1*
X1101891Y1384539D1*
X1098801Y1385411D1*
X1077268Y1363886D1*
X1218650Y1363894D1*
X1225292Y1368763D1*
X1232177Y1372271D1*
X1239527Y1374659D1*
X1247160Y1375868D1*
X1254888D1*
X1262520Y1374659D1*
X1267843Y1373019D1*
X1267838Y1551509D1*
X1169180Y1452885D1*
X1170256Y1447734D1*
X1170945Y1438976D1*
X1170772Y1434584D1*
X2852399Y1722274D2*
X2848159Y1716405D1*
X2848150Y1474261D1*
X2852402Y1476693D1*
Y1722248D1*
X2233979Y664448D2*
X2232464Y654881D1*
X2229471Y645669D1*
X2225073Y637038D1*
X2219380Y629202D1*
X2212530Y622353D1*
X2204694Y616659D1*
X2196063Y612262D1*
X2186851Y609269D1*
X2177284Y607753D1*
X2167598D1*
X2158031Y609269D1*
X2148819Y612262D1*
X2140188Y616659D1*
X2132352Y622353D1*
X2125502Y629202D1*
X2119809Y637038D1*
X2115411Y645669D1*
X2112418Y654881D1*
X2110903Y664448D1*
Y674134D1*
X2112418Y683702D1*
X2115411Y692914D1*
X2119809Y701544D1*
X2125502Y709381D1*
X2132352Y716230D1*
X2137842Y720356D1*
X2137838Y726240D1*
X2131312Y731942D1*
X2125021Y739308D1*
X2119960Y747566D1*
X2116253Y756515D1*
X2113992Y765934D1*
X2113232Y775591D1*
X2113992Y785247D1*
X2116253Y794666D1*
X2119960Y803615D1*
X2125021Y811874D1*
X2131312Y819239D1*
X2138678Y825530D1*
X2146937Y830591D1*
X2155886Y834298D1*
X2165304Y836559D1*
X2174961Y837319D1*
X2184617Y836559D1*
X2194036Y834298D1*
X2202985Y830591D1*
X2211244Y825530D1*
X2218609Y819239D1*
X2224900Y811874D1*
X2229961Y803615D1*
X2233668Y794666D1*
X2235929Y785247D1*
X2236689Y775591D1*
X2235929Y765934D1*
X2233668Y756515D1*
X2229961Y747566D1*
X2224900Y739308D1*
X2218609Y731942D1*
X2212091Y726319D1*
X2212083Y716633D1*
X2219380Y709381D1*
X2225073Y701544D1*
X2229471Y692914D1*
X2232464Y683702D1*
X2233979Y674134D1*
Y664448D1*
X2123223Y1149480D2*
X2119960Y1155047D1*
X2116253Y1163996D1*
X2113992Y1173414D1*
X2113232Y1183071D1*
X2113865Y1191656D1*
X2055259Y1250274D1*
X1994304Y1250280D1*
X1988609Y1243753D1*
X1981244Y1237462D1*
X1972985Y1232401D1*
X1964036Y1228694D1*
X1954617Y1226433D1*
X1944961Y1225673D1*
X1935304Y1226433D1*
X1925886Y1228694D1*
X1916937Y1232401D1*
X1908678Y1237462D1*
X1901312Y1243753D1*
X1895689Y1250271D1*
X1858444Y1250280D1*
X1773229Y1165061D1*
X1773736Y1165075D1*
Y1047523D1*
X1756835D1*
X1762511Y1040847D1*
X1767330Y1032983D1*
X1770860Y1024462D1*
X1773013Y1015494D1*
X1773736Y1006299D1*
X1773013Y997105D1*
X1770860Y988137D1*
X1767330Y979616D1*
X1762511Y971752D1*
X1756521Y964739D1*
X1749508Y958749D1*
X1741644Y953930D1*
X1739860Y953107D1*
X1746132Y949203D1*
X1752460Y943798D1*
X1757864Y937470D1*
X1759644Y934806D1*
X1814324Y934803D1*
X1957512Y1077856D1*
X1961130Y1080485D1*
X1965124Y1082518D1*
X1965966Y1086005D1*
X1963394Y1093919D1*
X1962093Y1102138D1*
Y1110460D1*
X1963394Y1118679D1*
X1965966Y1126593D1*
X1969744Y1134008D1*
X1974635Y1140740D1*
X1980519Y1146625D1*
X1987252Y1151516D1*
X1994666Y1155294D1*
X2002581Y1157865D1*
X2010800Y1159167D1*
X2019121D1*
X2027341Y1157865D1*
X2035255Y1155294D1*
X2042670Y1151516D1*
X2045713Y1149483D1*
X2123151Y1149488D1*
X735705Y1789659D2*
Y1766027D1*
X717655D1*
X721874Y1760856D1*
X726628Y1753098D1*
X730111Y1744691D1*
X732235Y1735843D1*
X732949Y1726772D1*
X732235Y1717700D1*
X730111Y1708852D1*
X726628Y1700446D1*
X721874Y1692687D1*
X715964Y1685768D1*
X709045Y1679858D1*
X704313Y1676798D1*
X709045Y1673685D1*
X715964Y1667775D1*
X721874Y1660856D1*
X726628Y1653098D1*
X730111Y1644691D1*
X732235Y1635843D1*
X732949Y1626772D1*
X732235Y1617700D1*
X730111Y1608852D1*
X726628Y1600446D1*
X721874Y1592687D1*
X715964Y1585768D1*
X709045Y1579858D1*
X706901Y1578425D1*
X714411Y1572962D1*
X721151Y1566222D1*
X726753Y1558510D1*
X731081Y1550017D1*
X734026Y1540952D1*
X735517Y1531538D1*
Y1522006D1*
X734026Y1512591D1*
X731081Y1503526D1*
X726753Y1495033D1*
X721151Y1487322D1*
X714411Y1480581D1*
X709410Y1476790D1*
X714411Y1472962D1*
X721151Y1466222D1*
X726753Y1458510D1*
X731081Y1450017D1*
X734026Y1440952D1*
X735517Y1431538D1*
Y1422006D1*
X734026Y1412591D1*
X731081Y1403526D1*
X726753Y1395033D1*
X721151Y1387322D1*
X714411Y1380581D1*
X709410Y1376790D1*
X714411Y1372962D1*
X721151Y1366222D1*
X726753Y1358510D1*
X731081Y1350017D1*
X734026Y1340952D1*
X735517Y1331538D1*
Y1322006D1*
X734026Y1312591D1*
X731081Y1303526D1*
X726753Y1295033D1*
X721151Y1287322D1*
X714411Y1280581D1*
X706699Y1274979D1*
X704017Y1273477D1*
X710680Y1268594D1*
X716783Y1262491D1*
X721979Y1255288D1*
X763128Y1255276D1*
X907630Y1399627D1*
X911248Y1402256D1*
X915234Y1404287D1*
X919496Y1405671D1*
X919811Y1408852D1*
X917686Y1417700D1*
X916972Y1426772D1*
X917686Y1435843D1*
X919811Y1444691D1*
X923293Y1453098D1*
X928047Y1460856D1*
X933957Y1467775D1*
X940876Y1473685D1*
X945608Y1476745D1*
X940876Y1479858D1*
X933957Y1485768D1*
X928047Y1492687D1*
X923293Y1500446D1*
X919811Y1508852D1*
X917686Y1517700D1*
X916972Y1526772D1*
X917686Y1535843D1*
X919811Y1544691D1*
X923293Y1553098D1*
X928047Y1560856D1*
X933957Y1567775D1*
X940876Y1573685D1*
X945608Y1576745D1*
X940876Y1579858D1*
X933957Y1585768D1*
X928047Y1592687D1*
X923293Y1600446D1*
X919811Y1608852D1*
X917686Y1617700D1*
X916972Y1626772D1*
X917686Y1635843D1*
X919811Y1644691D1*
X923293Y1653098D1*
X928047Y1660856D1*
X933957Y1667775D1*
X940876Y1673685D1*
X945608Y1676745D1*
X940876Y1679858D1*
X933957Y1685768D1*
X928047Y1692687D1*
X923293Y1700446D1*
X919811Y1708852D1*
X917686Y1717700D1*
X916972Y1726772D1*
X917686Y1735843D1*
X919811Y1744691D1*
X923293Y1753098D1*
X928047Y1760856D1*
X933957Y1767775D1*
X940876Y1773685D1*
X945608Y1776745D1*
X940876Y1779858D1*
X933957Y1785768D1*
X928047Y1792687D1*
X923293Y1800446D1*
X919811Y1808852D1*
X917686Y1817700D1*
X916972Y1826772D1*
X917686Y1835843D1*
X918676Y1840668D1*
X876392Y1798544D1*
X871680Y1795120D1*
X866490Y1792475D1*
X860949Y1790675D1*
X855196Y1789764D1*
X806352Y1789649D1*
X735696D1*
X914257Y1127796D2*
X914964Y1136274D1*
X917190Y1145543D1*
X920837Y1154349D1*
X925818Y1162476D1*
X932008Y1169724D1*
X939256Y1175915D1*
X942990Y1178409D1*
X937300Y1182677D1*
X930866Y1189111D1*
X925518Y1196473D1*
X921387Y1204581D1*
X918575Y1213235D1*
X917151Y1222222D1*
Y1231321D1*
X918575Y1240309D1*
X921387Y1248963D1*
X925518Y1257070D1*
X930866Y1264432D1*
X937300Y1270866D1*
X943020Y1275118D1*
X935510Y1280581D1*
X928770Y1287322D1*
X923168Y1295033D1*
X918840Y1303526D1*
X915895Y1312591D1*
X914404Y1322006D1*
X914257Y1325748D1*
X815291Y1226792D1*
X914247Y1127796D1*
D19*
X1354961Y1098425D3*
X1154961D3*
X514961Y984252D3*
Y1184252D3*
X2614961Y838583D3*
X2814961D3*
X1534961Y956693D3*
Y1156693D3*
D20*
X2054961Y1641732D3*
D21*
X2490000D3*
D22*
X2464961Y1023622D3*
D23*
Y653543D3*
D22*
X2344961D3*
D23*
Y1023622D3*
D24*
X514961Y1724409D3*
D25*
Y1624409D3*
Y1524409D3*
Y1424409D3*
Y1324409D3*
D24*
X1284961Y519685D3*
D25*
Y619685D3*
Y719685D3*
Y819685D3*
Y919685D3*
D24*
X1354961Y1637795D3*
D25*
X1254961D3*
X1354961Y1737795D3*
X1254961D3*
X1354961Y1837795D3*
X1254961D3*
D15*
X2494961Y1909449D3*
X1764961Y1913386D3*
X2964961Y866142D3*
Y732283D3*
D27*
X2804961Y1413386D3*
D28*
Y1313386D3*
Y1213386D3*
D57*
X2574961Y1361024D3*
D29*
Y1311024D3*
Y1261024D3*
D19*
X1114961Y1846457D3*
Y1438976D3*
X2964961Y1019685D3*
X2557480D3*
X2804961Y1751969D3*
X2397480D3*
X1864961Y1433071D3*
X2272441D3*
X2421220Y1115157D3*
Y1522638D3*
X1764961Y669291D3*
X2172441D3*
X2174961Y775591D3*
Y1183071D3*
X1944961Y1287402D3*
X1537480D3*
X2174961Y531496D3*
X1767480D3*
D30*
X674961Y1826772D3*
D31*
Y1726772D3*
Y1626772D3*
Y1526772D3*
Y1426772D3*
Y1326772D3*
Y1226772D3*
Y1126772D3*
Y1026772D3*
Y926772D3*
Y826772D3*
Y726772D3*
Y626772D3*
Y526772D3*
X974961D3*
Y626772D3*
Y726772D3*
Y826772D3*
Y926772D3*
Y1026772D3*
Y1126772D3*
Y1226772D3*
Y1326772D3*
Y1426772D3*
Y1526772D3*
Y1626772D3*
Y1726772D3*
Y1826772D3*
D27*
X1864961Y1645669D3*
D28*
X1764961D3*
X1664961D3*
D22*
X1714961Y1106299D3*
D23*
Y1006299D3*
Y906299D3*
Y806299D3*
X2014961D3*
Y906299D3*
Y1006299D3*
Y1106299D3*
G04 Top Clear*
%LPC*%
D33*
X1251024Y1326772D3*
D13*
X1354961Y1098425D3*
X1154961D3*
X514961Y984252D3*
Y1184252D3*
X2614961Y838583D3*
X2814961D3*
X1534961Y956693D3*
Y1156693D3*
D34*
X2054961Y1641732D3*
X2490000D3*
D35*
X2464961Y1023622D3*
Y653543D3*
X2344961D3*
Y1023622D3*
D36*
X514961Y1724409D3*
Y1624409D3*
Y1524409D3*
Y1424409D3*
Y1324409D3*
X1284961Y519685D3*
Y619685D3*
Y719685D3*
Y819685D3*
Y919685D3*
X1354961Y1637795D3*
X1254961D3*
X1354961Y1737795D3*
X1254961D3*
X1354961Y1837795D3*
X1254961D3*
X2494961Y1909449D3*
X1764961Y1913386D3*
X2964961Y866142D3*
Y732283D3*
X2804961Y1413386D3*
Y1313386D3*
Y1213386D3*
D37*
X2574961Y1361024D3*
Y1311024D3*
Y1261024D3*
D13*
X1114961Y1846457D3*
Y1438976D3*
X2964961Y1019685D3*
X2557480D3*
X2804961Y1751969D3*
X2397480D3*
X1864961Y1433071D3*
X2272441D3*
X2421220Y1115157D3*
Y1522638D3*
X1764961Y669291D3*
X2172441D3*
X2174961Y775591D3*
Y1183071D3*
X1944961Y1287402D3*
X1537480D3*
X2174961Y531496D3*
X1767480D3*
D35*
X674961Y1826772D3*
Y1726772D3*
Y1626772D3*
Y1526772D3*
Y1426772D3*
Y1326772D3*
Y1226772D3*
Y1126772D3*
Y1026772D3*
Y926772D3*
Y826772D3*
Y726772D3*
Y626772D3*
Y526772D3*
X974961D3*
Y626772D3*
Y726772D3*
Y826772D3*
Y926772D3*
Y1026772D3*
Y1126772D3*
Y1226772D3*
Y1326772D3*
Y1426772D3*
Y1526772D3*
Y1626772D3*
Y1726772D3*
Y1826772D3*
D36*
X1864961Y1645669D3*
X1764961D3*
X1664961D3*
D35*
X1714961Y1106299D3*
Y1006299D3*
Y906299D3*
Y806299D3*
X2014961D3*
Y906299D3*
Y1006299D3*
Y1106299D3*
M02*
